<?xml version="1.0" encoding="UTF-8"?>
<svg id="Layer_1" xmlns="http://www.w3.org/2000/svg" version="1.1" viewBox="0 0 3000 3000">
  <!-- Generator: Adobe Illustrator 29.5.1, SVG Export Plug-In . SVG Version: 2.1.0 Build 141)  -->
  <path d="M1057.36,2985.26h13.84l-.91-14.71c-6.04,4.48-10.2,9.34-12.93,14.71Z"/>
  <path d="M1092.05,2985.26h2.11c-.72-.96-1.43-.86-2.11,0Z"/>
  <path d="M1031.52,2922.58v62.68h3.34c0-.61-.02-1.22,0-1.83.71-18.2,15.44-51.2-3.34-60.85Z"/>
  <path d="M1189.95,2939.31l-7.2-9.36c-2.3,5.37,3.65,10.71,3.65,12.91v42.4h6.11c-.19-14.81-3.01-29.55-2.56-45.94Z"/>
  <path d="M943.06,2981.6c-.09,1.05-.03,2.31.08,3.66h4.12c-.98-2.21-2.32-3.75-4.2-3.66Z"/>
  <path d="M1831.71,2911.51c-8.2,2.03-5,5.3-4.96,10.15.14,14.81,2.68,30.18,1.27,45.15l-7.38-47.9-3.5,26.99-11.18,6.18c-4.28-9.3,7.13-6.24,7.55-9.68.96-7.82-6.94-21.22-.22-30.85-16.61-3.27-.06,26.42-11.06,29.47,1.49-18.31-2.05-39.25,0-57.16.2-1.72,5.1-5.24,3.71-9.2l-14.73-3.71v29.48s7.3-22.08,7.3-22.08v40.53l-7.3-14.71c-6.87,11.55,3.07,27.23,2.05,35.09-.42,3.17-5.6,5.96-5.92,10.95-.09,1.42,14.39,6.37,7.54,24.03l10.94-.06,11.13-22.09c.44,11.75-2.43,22.4-3.18,33.18h23.9l-6.16-5.93c6.84-21.99.29-45.14.19-67.81Z"/>
  <path d="M1120.06,2963.16c-.59,6.46.29,14.48.48,22.1h5.28c-.03-.35-.04-.72-.07-1.07-.44-4.82-.03-20.58-5.69-21.03Z"/>
  <polygon points="1103.16 2985.26 1105.48 2985.26 1107.14 2974.22 1103.16 2985.26"/>
  <path d="M192.54,2985.26h8.13c-.83-6.24-4.42-5.05-8.13,0Z"/>
  <polygon points="342.09 2985.26 345.65 2985.26 345.58 2955.79 342.09 2985.26"/>
  <polygon points="267.42 2985.26 268.14 2985.26 268.14 2981.6 267.42 2985.26"/>
  <path d="M345.71,2985.26h7.14c-.64-2.4-2.69-2.89-7.14,0Z"/>
  <path d="M895.12,2977.91c.31,2.43.4,4.89.33,7.35h3.99c.19-3.98-.34-8-4.32-7.35Z"/>
  <path d="M467.36,2966.85c-2.1,5.15-2.44,11.9-2.65,18.4h6.12c.16-1.78.27-3.59.3-5.45.05-4.21,2.39-13.92-3.77-12.95Z"/>
  <polygon points="309.42 2985.26 311.2 2985.26 310.59 2981.54 309.42 2985.26"/>
  <path d="M2013.21,2978.47c3.87-8.14,34.61-15.48,28.69-37.43-4.63,1.62-12.43,21.09-16.77,22.15-2.49.61-6.11-.34-9.01-.08-.66-.39,9.33-17.86-1.91-7.39,3.14,9.79-8.51,15.59-8.66,16.51-.21,1.32,2.03,2.97,2.04,4.58.07,10.93-4.38-1.31-6.2,1.04-3.75,4.84.05,6.44,3.45,7.4h10.28c-.82-2.87-2.48-5.61-1.92-6.79Z"/>
  <path d="M2318.52,2933.67c7.44,13.16-1.67,27.98-1.82,38.46-.06,4.31,0,8.69.15,13.13h6.82l5.03-43.2-10.17-8.39Z"/>
  <polygon points="2728.41 2985.26 2728.92 2985.26 2729.7 2981.6 2728.41 2985.26"/>
  <path d="M2809.01,2955.79c1.89,9.78,2.94,19.61,3.47,29.47h4.67c-.19-4.34-.44-8.65-.78-12.92-.34-4.28-1.14-16.52-7.36-16.55Z"/>
  <path d="M2827.18,2256.97c-1.59-18.14,18-80.87,30.61-93.15,3.69-3.58,12.76-3.47,13.75-4.87,1.55-2.1-2.4-10.29-1.62-14.94,1.07-6.53,5.38-11.8,5.49-19.77.15-16.67-7.74-42.26-7.45-60.85l2.62.37v-18.51l-2.65-.37c1.66-15.38,1.88-37.65-.3-53.14-4.42-31.9-40.08-49.38-66.12-62.95l-3.58-7.45c-16.63-197.4-33.37-394.76-49.23-592.49-6.6-81.98-15.75-162.29-20.83-244.6-2.07-33.59,2.18-78.36-3.84-110.52-2.84-15.23-16.59-16.45-28.91-18.14-45.4-6.34-113.25,4.5-160.85,5.46-13.17.26-27.92-8.96-38.68,1.62-10.55,10.32-4.02,32.19-8.04,45.4l-30.72,8.04c-8.7-15.34,11.25-51.11-11.1-55.39l-191.02-.04c-10.25,11.1-16.52,21.02-13.61,36.95l-39.83-4.5c-2.8-7.26-1.77-19.91-5.13-26.18-8.85-16.45-62.03-5.42-78.62-5.83-16.63-.44-101.34-10.95-108.27.15l-2.21,32.78c-10.36,7.15-23.6,9.81-34.41,2.73l-5.02-37.36-5.46-5.53c-43.81-1.95-88.61,2.14-132.28,1.11-34.33-.85-69.07-10.95-103.51-2.62-2.43-9.07-29.98-38.5-36.54-38.61-1.29,0-7.49,5.86-14.6,6.64-11.87,1.29-22.61-2.8-32.78-2.51-10.55.26-70.18,2.73-72.54,6.12l-.3,43.81-27.33,4.02c-5.75-13.94,5.79-32.82-7.38-44.33-8.41-7.34-56.38-10.33-62.87-.15l-3.5,33.56-31.38,3.47,2.06-40.79-4.42-2.91c-25.52,5.83-92.86-11.58-111.96-2.4-10.88,5.24-12.02,21.46-7.38,31.34l-262.93.77c-13.09,3.84-12.13,28.39-9.92,39.79-14.38-.77-29.57,5.46-42.74-3.43-6.23-8.67,9.22-28.95-7.56-36.1l-168.49-1.14c-12.98,13.75-8.19,31.57-11.47,48.31l-27.92,3.43-.18-44.07c-6.49-6.82-156.54-4.35-178.63-3.54-13.57.52-24.04-7.78-32.86,10.69-1.66,3.58.55,37.21-4.09,36.99l-38.65-3.76,2.1-37.02c-27.73-14.12-60.92-3.43-88.32-4.68-7.19-.33-15.27-6.01-26.14-6.34-47.68-1.51-95.77.96-143.45.63-3.28.7-4.42,2.69-5.42,5.64-1.73,5.16-7.15,51.33-7.6,58.82-15.41,260.75-44.51,519.74-63.06,781.41-2.36,33.26,4.06,91.16-3.95,121.43-5.94,22.38-56.31,35.48-66.45,66.6-5.02,15.38-8.92,110.26-6.79,128.77,1.03,8.78,6.79,15.52,7.08,24.23,9.88,39.35,19.8,78.69,29.72,118-22.02,243.38-44.03,486.77-66.01,730.15h15.45l6.31-47.68c16.96-.85,29.8-5.38,45.54,3.58l5.83-9.37-25.78-1.84c5.86-13.31.33-17.55-10.44-9.37l3.06,13.05-18.44.04,3.69-51.66c35.51,9.48,35.14-17.55.04-3.65l18.44-147.54,36.84,3.69c-7.56-11.8-25.59-11.21-36.84-7.38l11.06-114.28c15.56,7.93,29.35.59,42.85.52,11.32-.07,25.92,3.06,36.47,2.91,5.79-.07,21.57.26,23.9-7.12h-97.72l24.3-357.37,21.98,2.07-4.02,102.85,7.49,31.16c3.21-11.76-3.84-24.85-3.65-35,.11-6.34,3.47-12.28,3.69-18.51,1.33-38.61,3.13-45.54,10.99-78.07,2.03-8.56-4.57-25.74,3.72-30.64-.7,57.05-10.33,112.84-7.3,169.63-6.56-.22-12.98-.41-19.54.77-4.02.74-11.51,7.67-.85,6.56l24.01-3.69c2.91-36.84.18-79.73,4.06-115.79.41-3.58,1.62-13.9,7.01-13.24l3.69,25.78c-1.14-19.99,4.94-39.94-7.52-57.01l7.82-9.03,7.27,1.99,7.08,7.74,3.8,37.87.07-33.15c8.7,6.93,18.29-.41,25.96,1.51,6.6,1.7,10.1,10.92,18.25,9.51.29-9.15-.37-18.48,0-27.66.18-4.5-2.77-13.72,3.65-12.87,6.49,57.01-5.72,115.46-3.61,173.28l7.3-38.72,3.76-138.25c6.45-.85,3.47,8.37,3.65,12.87.44,10.4-.33,20.95.04,31.34,5.53.22,6.34-12.98,6.9-17,1.22-9.03.22-18.18.48-27.21l4.42,34.26,6.42,8.08,48.05-1.81c-1-3.65,3.76-7.89,3.76-9.18v-75.6l44.25-.04c5.97-4.54-.48-6.82-5.53-7.45-13.2-1.59-25.59,5.05-38.72,3.76l7.08-218.9c2.36-12.5,53.62,1.99,59.3-13.35l-228.6-.07,27.62-361.54c7.6-9.96,43,3.84,53.47-9.07l-55.31-1.84,36.73-447.5,59.15-6.08c4.94,4.72-8.41,36.73,3.65,40.6,1.77-13.2-4.98-30.83,5.57-40.56h75.6l-28.03-7.04-112.1,3.36,3.69-44.25h143.82c2.65-11.21-2.14-4.57-6.08-5.24-28.06-4.72-44.92,1.92-69.51,1.88-21.94-.04-44.77-8.78-68.18-.33l-.04-33.23c55.76,1.25,111.48-.55,167.16-2.29,11.54-.33,28.84,8.63,39.35-3.24-12.32-3.76-25.67-1.03-38.43-2.1-24.3-2.03-48.71-3.87-73.86-3.58-31.49.37-62.76,4.35-94.22,3.87l3.72-40.53c31.27.81,62.84-1.18,94.15-.22,7.89.26,14.6,3.47,21.98,3.87,20.69,1.22,26-14.42,23.97,25.81h11.06v-25.81h77.44c.92,20.98-6.49,43.37,5.53,62.62l21.9-20.65,42.3,5.68,4.02-51.33h114.32c-10.4,17.66,6.64,32.75,3.72,51.59l9.81-51.74,45.51.11c-1.88,16.74,4.28,35.25-11.1,44.25,10.66-5.13,20.72,9.85,23.93,10.14,1.84.15,11.03-5.9,18.4-6.6,11.47-1.03,20.69,2.69,31.42,2.29,12.21-13.9,5.83-33.26,7.56-49.86l154.7-3.83v40.53h-99.57l3.76-9.18-7.38-1.88-7.41,22.09c36.43-5.97,73.68-5.16,110.22-3.28l2.25,29.13c8.56,2.51,5.27-7.93,5.49-12.87.37-8-.3-16.08,0-24.04l44.25.04-1.81,14.79c35.29-20.06,80.65-.41,119.81-3.76.63-9.11.96-6.38-5.57-7.26-5.13-.7-20.54-3.76-22.09-3.76h-75.6l4.06-36.51,121.29-.37.07,47.94,40.53-3.69,3.65,36.84,4.09-32.78c25.15-13.31,59.15,10.73,77.07-7.71l-14.79-.07,3.95-44.03,14.31-2.32,7.15,4.46c-.22,54.47-14.71,111.33-10.58,165.39.77,9.88,4.17,35.99,8.11,43.7,2.62,5.09,18.95,21.83,25.04,13.5-2.18,82.05-9.92,163.14-7.52,245.41.33,11.21,10.51,25.89-3.54,29.32l7.34,7.45-7.34,3.65.04,16.56,7.3-7.34v14.79l-7.38-1.84c14.05,38.46-4.61,83.16,7.45,123.46,6.42.88,3.47-8.37,3.65-12.83,4.54-116.6-1.11-230.96,3.36-346.68.96-25.22,7.45-52.73,4.06-79.28l3.69,29.46,7.34-25.78v82.97c0,.59,3.61,10.77,7.34,9.18l-3.61-92.15c11.73-14.53,10.8,39.16,11.03,42.48.44,7.38-2.88,10.62,7.38,9.11l.04-99.53,3.65,14.75c15.05-4.76,11.21,7.34,22.13,7.34l.04-36.84,14.9,53.25-7.6,3.91,6.79,2.51.66,17.74c10.88-6.64-3.02-20.17,14.68-22.09l.11,60.59c-.81,5.38-35.92-2.14-33.23,13.13,12.02,2.36,23.75-3.91,35.03-3.98,44.84-.29,99.2,5.83,143.38,3.65,17.81-.88,28.95-13.98,39.09,4.06,1.59-4.13-1.55-14.75-5.49-14.75h-101.41l.85-57.05,17.59-9.37-3.69-14.68c14.64-2.43,6.38,26.88,3.69,33.11l9.4-3.25c1.95,13.61,23.82,3.58,27.29,7.19,2.1,2.21-3.32,12.06,3.84,10.8l.07-14.71,10.99,7.38,7.45-81.13c7.74-.81.96,10.84,4.13,14.27,1.48,1.59,9.85.07,12.65,3.87,3.65,5.02-2.03,15.52,5.27,15.01,1.88-15.6-12.13-31.97,7.38-40.53-4.09,18.84-2.25,37.69-4.02,56.79-1.22,13.09-10.92,23.16-3.28,39.05l3.69-29.5,7.3,3.72c3.43-4.65-2.07-30.17,7.38-33.19v22.13l14.75,3.61-18.4,7.41,18.48,3.76c-4.5,9.26-7.97,24.74,3.61,29.46l.07-29.5,5.38,18.77,9.29-.33.07,95.84,10.99-47.9-2.25,137.62c9.4,46.46.07,102.15,5.97,148.24.66,5.35,2.8,11.43,7.38,5.42-.63-23.93.81-48.09.15-72.02-2.66-95.07-10.95-192.35,5.09-285.09,7.52-43.59.7-84.78.52-127.78-.04-15.34-3.02-40.86,16.37-38.72,2.77,3.1-6.31,22.31,7.38,18.44l3.43-16.85,29.76-1.62c-13.98-13.68-35.48-7.01-51.48-3.76l-3.8-40.45,16.59,3.5,1.84,26c13.31-5.83,4.5-24.19,7.85-34.55l8.78-6.12,165.46,7.26,5.97,29.72,11.03-.04-7.38-25.74,55.35-.07c1.07,12.43-4.06,27.47,5.13,37.24,8.48,6.67,42.56,4.39,53.8-.33l.37,27.95c1.48,5.83-14.9,5.94-4.02,10.8,5.27,2.36,31.57,2.36,38.76,1.81,4.24-.3,16.56-1.14,16.52-7.34l-47.9-.07c-1.4-3.98,3.69-8.04,3.69-9.18v-57.16l162.26-3.69c-5.83,57.45,34.41,31.34,68.18,47.98l5.61-47.94,184.38-.07c2.88,21.72-11.06,41.82-1.84,62.76,10.58-5.72,21.72-9.63,33.78-10.84,8.15-.85,18.48,3.69,19.29,3.1.59-.41,3.25-8.7,7.45-12.87,4.46-4.46,12.39-3.69,11.36-8.85-18.55-3.91-17.37-37.02,2.51-40.01,1.44-.22,17.74,7.6,27.55,8.41,40.16,3.32,92.49-4.02,133.94-4.31,8.19-.07,15.23,5.31,24.04-1.03-.81,10.36,7.12,27.66-6.23,32.56l-96.95,2.43,75.96,5.2,30.94-3.32-.04,36.88c-44.73-8.78-92.01-1.81-138.29-.04-4.54.18-13.68-2.77-12.87,3.72h151.19l18.44,254.45c-18.66-.77-38.39-6.16-57.23-3.69-5.09.66-11.54,2.69-5.42,7.34l64.75,7.15,12.61,144.04c-48.16-7.49-97.39-.81-145.66-3.58-7.41-.41-5.75.33-5.46,7.26l150.75,4.13,7.78,65.97h-51.63c6.05,11.58,46.13,3.47,51.15,11.58l7.82,102.74-31.12.18c-26.92.15-52.81-4.65-79.43,1.62,8.26,11.58,19.54,2.03,28.03,2.21,7.45.15,13.87,3.61,21.57,3.5,19.84-.26,42.56-9.66,64.16.37l2.69,32.93-42.7,8.92c5.09,9.33,42.96-.04,44.18,1.84l.07,33.23c-33-3.65-65.38,7.34-97.57-.15l-27.8,7.49,128.81,3.91,15.01,184.2c-50.74-3.32-100.64,1-151.45-1.62-20.32-1.03-20.28,2.32-42.3,5.16-6.23.81-12.24-.81-16.45,5.68l36.84-1.84c5.53,5.53-20.84,88.47-22.24,104.95-4.06,47.57,1.7,113.21,3.95,162.26.29,7.08-1.03,21.83,7.23,24.12v-84.82h3.69v82.97c0,2.47,4.87,9.26,4.17,14.79l3.25-12.94,11.03,3.72c4.28,9.99-7.6,5.75-7.41,9.18,7.41,2.77,8.44,4.31,7.45,12.91l10.99-7.38,3.76,70.07c-30.64-1.51-57.86-4.46-88.54,0-2.21,13.24,1.81,3.69,5.53,3.69h86.66l-2.18,11.1c-39.09-3.5-76.7-1.73-115.79-.07l7.34-7.3-7.41-1.88,7.38-9.22c-13.35,8.59-25.37-.15-38.76-.3-31.75-.41-65.16,7.3-97.69,4.02l-3.61,7.3v-99.53c11.06,8.67,15.41,27.36,14.75,40.53l3.69-25.78c10.4-2.07,6.64,3.54,7.52,10.69l29.35,2.29c3.5-31.71,22.13-61.1,25.33-92.74,5.38-53.06-3.21-115.35.11-169.45l7.67-8.89c-18,1.29-22.35-30.05-29.43-44.29l44.21-7.34c-62.84-1.29-125.53-7.12-188.07-.04-1,11.43.81,5.94,7.04,6.16,41.49,1.44,86.62-8.04,129.03,1.59l18.81,42.04-237.26-2.43c-13.83-9.88-11.62-27.91-13.57-41.82-.74-5.24-1.36-10.66-7.23-5.53l-28.47,98.79c-15.6,67.19,7.96,135.52,2.62,203.56,8.81,2.99,9.73-8.81,10.14-13.98.88-10.88-2.07-15.71-2.8-24.78-.3-4.06-2.65-13.75,3.65-12.83l7.08,42.74-7.01,5.13c12.39-.22,10.29,19.91,11.06,29.57,11.54-4.68,6.53-19.95,7.38-29.5,15.49-3.13.66,24.63,12.91,29.46.59-16.15,26.66-2.32,27.58-3.65,1.44-2.1-3.25-11.21,7.45-12.91-13.61-2.95-6.71-25.59-3.8-37.13,1.55-6.19-3.69-10.77,7.45-8.96l3.72,129.03c6.45.88,3.47-8.37,3.65-12.83,1.36-32.86-1.03-65.16-3.65-97.76l3.69,22.09,7.3-11.03c-3.69,7.89,3.72,19.95,3.72,23.97v75.6h3.69v-73.75l29.46-3.69,3.76,81.09c4.57,5.97,6.67-.07,7.34-5.42,3.54-27.51-3.47-55.68-3.65-83.05l5.49,14.79,5.49-14.79c11.51,29.32,6.45,61.25,7.45,92.19l-36.95,5.53,14.75-1.88c8.67,21.87,1.07,42.63-.15,64.39-.33,5.94-2.69,25.26,3.84,27.8l3.76-92.15,14.71-.04c1.03,25.15-1.33,50.67-.07,75.78,1.14,22.35,6.97,48.12,7.6,69.77.85,29.1-6.6,54.91-.11,83.08,6.86.74,3.21-8.26,3.06-12.57-.85-27.14,1.29-54.25.77-81.61-.22-10.51-3.84-19.51-4.02-29.17-.66-33.82.81-67.78.15-101.59,17.04-2.47,30.53,10.29,44.21-3.65l3.76,73.75c-3.28,3.24-29.57-7.3-25.81,7.34l25.78-3.69,3.72,70.07,5.27-31.31-5.31-112.47,22.16.04-3.54,7.12,10.84,3.91,1.95-11.25,215.69,3.84c.48,13.94-1.07,28.06.41,42,.41,3.8,1.44,17.33,6.93,17.04v-55.31l22.09-3.72c1.44,18.33,1.92,38.65,4.17,56.75.66,5.38,1.92,22.31,6.9,24.38,3.87-13.53-9.63-68-6.34-75.6,1.22-2.77,1.84-4.06,5.01-4.94l19.8-.59,7.38,110.63c-2.07,1.66-20.36-3.61-22.13,7.38h22.16l1.81,44.33-1-160.04,21.28-5.94-3.69,11.03c51.85-24.15,35.66,20.87,36.91,57.16.52,14.94-.04,29.57.41,44.14.59,20.58,2.4,41.93,3.25,62.87.18,4.46-2.77,13.72,3.65,12.83-.81-37.43,1.14-75.12.18-112.58-.55-22.27-15.16-65.79,7.23-77.29l-11.03-5.61,7.3-14.68-10.99,7.38c-1.73-26.74-6.97-58.93-5.35-85.41.26-4.5,2.91-20.65,9-21.54v95.88l11.06-18.44,7.38,134.56c.18,5.86,7.19,13.27,11.06,7.41-5.42-4.13-6.75-7.93-7.6-14.53-2.84-22.27-2.58-49.45-3.43-72.13l7.3,14.71-3.69-22.05,40.64-3.76,7.52,108.9c14.31,126.74,30.05,257.1,40.75,383.04,2.65,31.42,5.05,62.95,7.01,94.4l-77.44-7.34v-51.63c6.49-.85,3.5,8.33,3.69,12.87.48,11.65-.37,23.42.04,35.03,8.56-4.79,1.4-22.68,3.61-30.79.96-3.47,7.12-2.14,7.34-2.47.92-1.18-6.31-7.56-7.23-12.87-1.99-11.36-3.32-35.11-3.95-47.72-.18-4.02-2.43-17.44,3.84-16.74l11.14,77.4,7.26-1.73-3.58-27.73,10.99,25.81-3.65-36.88-11.03,3.69-11.14-60.81,7.38,1.84-.11-7.3c-11.28,1.14-6.82-9.99-7.23-18.59,11.73-.66,23.38,1.47,34.77,3.98,3.87.85,24.52,15.19,16.82-2.1-3.72-8.41-30.79-5.16-40.49-9.26,3.1-6.34,11.28-12.43,18.36-11.06l-7.04-5.2,7.04-39.02c-10.21,6.19-1.88,30.9-18.36,29.46l-7.38-14.71-3.69,18.4-3.76-40.53c-10.36,4.57,2.69,22.53-.48,30.5l-17.88,28.51-.07-95.88-13.02,27.55c2.51,10.51,12.13,71.95.15,71.95-9.03-6.82-4.9-19.06-5.49-29.43l7.3,18.4c1.95-11.98.48-27.84-14.68-29.46l3.65,36.88h-53.47c-.63,0-5.79,4.98-5.53,7.38h60.85l5.53,5.53v86.66h3.69v-59c6.27-.07,8.04-2.18,7.08,5.16-2.58,19.06-5.05,40.23-4.98,59.37,0,4.72-.29,22.9,5.24,23.93,3.54-34.85-.59-78.69,3.72-112.51.7-5.38,2.8-11.43,7.38-5.46-.77,20.06-2.47,35.92,3.65,55.28l-7.3-7.34,7.3,118c-12.57-6.12-26.77-4.68-39.9-1.07-6.53,1.81-9.59-1.18-7.96,8.41l16.23-3.98,3.98,7.71,20.17-7.23,3.95,55.13h3.39l-3.54-53.4,11.1-1.92.04,11.06,5.68-11.28c14.42,1.99,65.82-4.39,73.72,7.49l6.45,48.05h17.07c-10.33-36.8-80.21-718.83-81.05-728.27ZM153.86,2155.56l3.47-20.54,26.07-1.59-3.47,20.5-26.07,1.62ZM164.92,2166.62l25.78.04,3.72,25.74-25-.77-4.5-25ZM175.99,2232.96c4.94-11.58-2.58-18.4-3.65-29.46l25.67.07,3.8,29.43-25.81-.04ZM235.03,2155.52l-7.41-25.78,36.88.04v25.74c-15.12,2.03-3.1-14.6-12.87-11.1-4.31,1.59,2.84,10.77-12.61,3.98l-3.98,7.12ZM242.4,2196.08l14.68-18.4-18.4,7.34v-22.09l29.54-.04-.07,33.23-25.74-.04ZM262.91,2229.68l-16.82,3.32.41-25.41,21.87-2.54,7.19,31.6c-8.96,1.18-9.63.44-12.65-6.97ZM310.66,2092.79c-19.29-17.7-51.26.63-46.17,25.89l-34.59.22-6.6-29.1c-10.69-4.28-34.7-15.27-41.56-.77l-2.06,33.34h-40.56l3.72-125.38,10.99,7.34,2.36-7.49,17.48.26,5.97-7.49v25.78l-12.83-14.71-9.22,22.09,19.77-3.43,9.66,18.18c-.7-17.11-.11-27.77,12.8-38.94,20.39-17.55,35.03-4.31,57.27-12.69l.04,11.1,3.65-7.34h18.48l-7.41,5.49,7.41,9.18-18.44.07c10.03,16.34,29.76,2.14,22.13-14.75l29.5-.04,1.81,11.06,3.98-11.28h25.67c4.42,7.74,0,18.99,1.81,27.21.63,2.91,6.71.92,7.6,7.78,1.07,8.33.77,90.64-1.92,94.51-5.57,8.04-26.07-.11-35.4,1.73l-5.31-27.84ZM316.12,2155.56l.04-22.13,5.49,7.41c3.28-7.96,2.95-8.56,12.91-7.45l3.65,14.75,3.69-18.4.07,18.4,3.69-11.03,10.4,4.35.59,17.74-40.53-3.65ZM323.64,2172.41c1.33-4.94,15.49-5.35,17.48-4.57.74.29,8.74,10.69,8.22,13.5l11.03-11.03,3.69,25.78-36.54-3.87-3.87-19.8ZM330.87,2236.65l14.71-7.38c.59-7.04-13.53-5.68-14.71-7.41-7.01-10.58,15.89-21.76,25.74-18.33l1.92,11.06,5.49-11.1,3.76,33.19-36.91-.04ZM378.81,1971.18l-11.03,224.91-3.76-106.94-7.3,3.72c.92-32.78-.88-72.24,8.48-103.99,1.29-4.35,5.86-20.54,13.61-17.7ZM219.35,1935.26l155.77,2.77c-5.61,10.03-6.12,41.26-13.39,43.7-26.96,2.03-53.91-3.24-80.57-3.36-24.15-.07-49.64-.41-73.97-.04-18.48.26-38.35,6.97-56.97,7.56-2.32-8.56,1.99-6.16,4.65-8.44,14.93-12.76,46.69-39.64,64.5-42.19ZM1186.4,1012.39v-40.56h95.88l3.69,40.53c-33-3.58-66.3-2.25-99.57.04ZM1339.18,1134.3l-1.55-37.1,36.65,7.52.15,36.69-35.25-7.12ZM1381.33,1092.92l-42.11-2.88-1.88-49.86,11.36-3.84-11.06-5.49,62.69,14.71-18.99,47.35ZM1501.7,1244.71h-55.31c-7.34-3.61-10.47-40.45-5.09-43.85,11.03-2.29,24.86,4.09,32.75-5.94v-60.85l3.72,29.46,3.69-33.15c23.97,1.66-9.48,21.76,11.06,27.55l-7.41,12.98,14.71-3.65c-1.22,15.45,6.08,31.71,6.97,46.5.3,4.76-.85,30.94-5.09,30.94ZM1451.99,1169.08c-.22-.81-12.13-6.31-11.14-12.83l25.78-3.72.07,29.5-25.81-.04c.22-8.3,15.6,2.54,11.1-12.91ZM1566.19,1163.58l-9.18-7.34c-11.28,6.82,4.83,22.46-12.91,22.05,8.37-12.83-8-19.8,0-27.66l3.72,5.53,5.72-7.56,16.37,5.72-3.72,9.26ZM1573.61,1141.45l-32.71-4.17-4.17-36.4,36.88-1.84c-6.71-12.91-35.11-4.46-36.66-5.57-1-.7-5.31-16.19-9.66-21.91-7.85-10.32-22.46-11.76-20.06-26,3.65-3.58,36.21,2.84,43.26,2.54,9.85-.41,28.73-13.53,37.76-.74-16.48,29.24-10.73,61.99-14.64,94.07ZM1553.58,1034.4c-2.21.15-1.59,6.86-4.57,7.56-6.97,1.55-51.59.74-49.23-11.1l-3.58-.04c-1.62,13.35-14.31,15.01-25.81,14.79l22.13,5.53c-16.45,28.1-34.18,56.42-22.16,90.27l-29.5.04c-1.92-10.62,1.88-21.72,1.99-31.57.11-6.82-9.59-9.96,1.66-19.99-9.99,1-7.74-11.06-12.94-18.44-8.08-11.43-24.45-11.4-20.17-29.57,4.17.3,7.85,2.47,12.21,2.29,3.87-.15,20.84-.74,20.95-5.94-18.84-3.61-47.35-.48-64.46-3.76-7.82-1.51-10.62-8.92-14.64-9.55-6.05-.92-19.58,4.9-27.84,2.21v-88.54l88.54,3.72c-4.17,23.79-3.5,46.5,1.81,70.1l1.84-25.89c21.35-5.09,49.3,7.12,59.04-16.63l-7.6-3.84,3.91-23.71,44.21-.04-3.72,25.78c-1.25,1.33-47.42-3.5-33.11,7.38l29.72,1.62,3.58,16.71c12.24-.96,27.03,1.88,38.79.33,13.24-1.73,15.6-11.69,26.37-14.16,17.37-3.98,35.36,3.13,52.66-.81l-35.44-6.97-16.26,1.7-3.58-31.6,86.14-3.13,5.53,5.53.52,30.83c-5.16-3.02-12.94-4.68-14.75,3.65l14.46,6.01.33,53.03c-22.75-.33-45.62.37-68.41.15-15.6-.11-44.99-4.83-58.6-3.95ZM1642.09,1093.66c-5.68-23.45-33.11-26.63-38.98-48.09h77.44l.04,40.56-38.5,7.52ZM1680.47,1141.42l-29.17-3.91-3.95-40.31,33.15-3.69c-2.4,16.26,4.87,32.49-.04,47.9ZM2174.54,2161.24c-3.21-28.36.15-61.4-3.5-90.49l7.15,27.84,3.84,75.41c-6.71-1.4-6.86-7.23-7.49-12.76ZM2438.43,2233.29l-20.32,3.36-.04-12.87,7.34,1.84-5.72-22.27,27.88-3.54-9.15,33.48ZM2447.54,2192.43l-21.9-3.87,3.28-20.36,29.72-1.55c-5.2,8.11-11.98,15.16-11.1,25.78ZM2458.64,2155.56l-29.35-3.84,3.32-20.39,26.04-1.62v25.85ZM2231.92,2236.72l-7.45-3.8-5.49,7.41c-4.31-10.47-3.36-13.5,3.58-22.02-17.04-3.13-6.01-27.33,11.1-11.14l3.69-7.38-5.42,36.91ZM2240.55,2188.23l-25.3.48,3.43-20.39,26.07-1.7-4.2,21.61ZM2248.15,2151.57l-29.17,3.95,3.43-24.27,26.04-1.51-.3,21.83ZM2285.36,2236.65l3.36-13.13-7.19-3.72,1.88-12.8,27.77.18c1.59,21.5-3.95,30.98-25.81,29.46ZM2314.86,2192.43l-29.54-.04,4.13-25.37,25.41-.44v25.85ZM2289.01,2151.83l7.41-22.13,21.87,3.91.15,18.18-29.43.04ZM2381.2,2328.84l-38.2-.07-6.01,7.45-3.54-84.48c48.2-17,30.05,22.01,32.86,53.21.44,5.09,3.72,5.16,3.84,5.49-1.81-12.72-1.66-48.01,0-60.92.66-5.38,2.8-11.43,7.38-5.46l-.04,73.72c-2.29,1.22-7.26-6.82-7.34-7.34.77,2.43-1.81,8.11.63,10.51,2.95,2.91,13.53-3.98,10.44,7.89ZM2373.57,2209.43c1.03,4.5-6.19,30.98-10.73,27.22,1.18-11.73-6.97-3.84-14.6-7.26l-3.87,10.95,3.54-35.33c5.94-.81,23.79-2.99,25.67,4.42ZM2351.74,2196.12l.29-29.17,29.21-.33-3.76,29.5c-9.66-2.47-16.34-5.79-25.74,0ZM2381.31,2150.28l-29.65-2.14,3.58-16.67,29.61-1.73-3.54,20.54ZM2351.7,2122.37l.04-33.23-31.6,3.47-1.66,33.45-25.41-4.09-5.86-32.78c-22.75-16.82-41.08,4.09-35.03,29.5h-33.23c-2.69-44.18,5.75-89.39-3.69-132.76,10.84,6.45,44.62-2.77,51.66,1.77,5.53,3.54,2.25,7.45-2.4,8.74-13.09,3.54-28.76-.26-41.85,2.36,6.38,11.17,41.26,2.54,44.25,5.53l1.81,18.51,1.84-36.88c8.26,5.75,55.79-3.95,58.41-2.62.81.41.29,5.9,2.14,5.9l27.92-3.32-3.72,14.71c-12.87,2.84-2.84-6.93-3.58-7.3-8.89-4.65-4.87,6.6-12.65,7.63-20.61,2.69-42.67-15.75-50.08,7.04,9.37-2.8,64.61-5.72,69.4-2.69,1.81,1.11-.88,7.01,2.51,6.45l5.38-24.12,62.62-1.62,3.91,14.6h-55.31l.04,18.44,3.69-14.71,12.91,7.34c3.5-7.56,2.95-8.59,12.87-7.38l.04,18.44c15.75,2.73-1.03-12.32,5.53-18.48,19.03-.11,17.74,6.82,27.58,18.51l-7.34-33.19,24.12-.18-2.03,132.94h-22.09l-7.15-42.63-33.23-1.44-3.84,44.07h-36.91ZM2513.96,2332.56h-81.13l38.46-11.32,16.85,3.91-25.78,3.69c12.83.44,25.85-.52,38.72.04,4.54.18,13.68-2.8,12.87,3.69ZM2820.58,2130.3l40.01-4.2c-8.41,29.28-53.84,49.41-40.01,4.2ZM2620.93,1934.3c50.45,12.24,112.92-4.5,163.22,4.54,12.54,2.25,48.46,27.36,59.26,36.58,3.87,3.32,7.71,3.72,6.09,10.51-28.54-9.7-58.23-3.69-86.92-4.28-24.19-.52-48.38-3.39-73.68-3.24-18.11.15-36.18,4.61-54.47,3.98-9.62-13.87-15.08-31.09-13.5-48.09ZM2657.77,2332.56h-18.44c2.36-27.36-6.05-53.84-3.69-81.13l22.13-3.69v84.82ZM2657.77,2236.65h-25.81l.04-11.03,7.3,7.34,3.72-9.22-11.06-1.84,1.66-11.25,24.15-3.47-7.15,24.23,7.15,5.24ZM2664.93,2195.86l-28.87-.15-4.13-29.1,40.56-3.69-7.56,32.93ZM2631.92,2151.83l3.87-25.67,40.45,3.54-5.57,25.81-5.49-7.3-2.32,7.6-30.94-3.98ZM2665.19,2262.5l6.42,10.1,4.57,45.17-3.61-99.53,3.69,7.34,7.3-7.34-3.72,42.37,11.39,3.87,3.43,68.04c-41.71,5.42-18.96-43.4-29.46-70.03ZM2702.03,2332.56v-62.69h3.69v59l3.87-11.1,20.13,7.38,1.84-9.18-22.16-1.84-3.69-62.65c15.16,4.68,25.96-.26,40.53-3.72l3.69,84.82h-47.9ZM2740.75,2240.34l-3.54-7.38c-22.2,20.36-36.95-13.9-13.09-11.03l-11.03-7.41c7.63-16,22.94-6.79,36.88-7.3l-9.22,33.11ZM2724.04,2194.5c-14.09-26.74,6.79-33.08,29.32-24.6l3.95-6.97.07,29.5-33.34,2.07ZM2724.19,2155.52l3.69-29.46c6.16-1.47,2.43,4.65,4.2,6.56,1,1.07,24.04-5.13,28.95-2.88,2.91,30.31-16.37,20.76-36.84,25.78ZM2759.04,2122.44l-27.73-5.38c-3.65-27.73-9.77-34.96-39.05-35.07-25.48-.11-10.62,35.92-21.54,36.58-10.03-8.15-19.8-4.28-31.38-3.58,0-41.89,1.81-84.23-7.38-125.34l51.63-.04c1.44,1.47-3.47,20.61,7.34,22.13l-3.61-22.13,14.71.04-1.84,22.13,5.53-22.2,56.75.63c9.18,2.51,4.09,28.99,4.46,36.77.18,4.65-.48,21.31,5.16,21.65v-59l18,4.13,2.29,14.35,1.88-18.48,22.09.04-7.34,25.78c16.45-7.15,8.3-41.12,29.46-16.59l-7.49,3.69,7.52,16.56c10.58-2.21.33-28.95,14.71-25.78-3.17,41.86-.81,84.08,3.69,125.34l-36.88-3.69c15.97-52.77-62.14-38.09-60.99,7.49ZM2779.06,2329.95l-7.04-87.69c4.31-6.38,3.5,2.88,4.98,3.98,13.46,9.81,20.06,6.01,35.66,5.16l7.38,81.17c-12.24-6.08-32.56,9.62-40.97-2.62ZM2809.48,2215.26c-1.7,2.84,2.88,19.25-.52,25.08-10.33-1.59-18.77-2.4-13.31-13.87.22-.48,3.39-6.71,3.69-7.15,5.68-8.92,9.88-13.87,20.65-15.82,2.84,9.48-8.78,8.89-10.51,11.76ZM2801.59,2188.71l3.72-22.13,33.15.07-11.1,25.78-25.78-3.72Z"/>
  <path d="M2379.19,2930.11l35.2-7.53h-66.38v-55.31c-5.24-1.11-5.11,7.14-5.21,10.59-.35,12.29,1.43,26.8.96,39.56-.72,19.42-10.47,3.49-16.99-4.49l2.39-13.89-6.96-50.21v68.22c0,1.2,12.75,14.45,12.93,20.27l5.47-7.33,6.52,55.28h4.9c-1.9-30.58-19.94-70.3,27.18-55.15Z"/>
  <path d="M1923.98,2959.48c4.28-5.69,3.63,22.01,7.51,5.39-7.01-16.97-15.47-25.43-11.22-45.97l14.7,3.66v-18.41s-14.71,11.02-14.71,11.02l3.64-44.21-7.3,18.4c-5.76-28.82.77-52.65,3.61-81.11l-10.99,14.73c-.85-12.4.81-28.58-2-40.44-.8-3.37-4.32-15.12-9.07-14.84-2.97,9.93,9.47,24.59-3.69,29.48l-7.41-40.52,40.22.31c1.96,14.74.14,28.42-2.54,42.94-1.31,7.12.31,4.48,6.55,4.63l1.63-44.47c4.32-6.21,25.06-2.94,33.5-3.44,7.41-.44,10.65,2.85,9.11-7.39l-84.76,3.67,3.65-95.88,66.38-3.69c4.3-9.39-6.95-6.08-7.32-9.55-2.67-25.08,11.01-66.41,7.3-93.67l-7.32,35.04-4,64.22c-16.84,1.69-23.2,3.2-32.86-10.77l-1.86,11.17-12.95-.14c7.75-6.86-2.41-6.63-3.35-10.17-2.28-8.51-11.02-46.37-.68-46.68l-3.36-53.72-8.9,10.18-46.35-2.81,3.71,14.71c5.62,1.35,2.48-5.11,6.17-7.56,6.38-4.25,28.3,2.37,37.72.53l1.9,6.62c-5.81,44.88-.13,91.02-9.07,134.8l7.64,4.16-3.86,53.27-7.4,1.8c.62,3.16,6.04.77,7.24,4.58,8.33,26.38,1.57,51,.93,76.57-.3,11.7,11.68,35.68-4.48,40.56l7.41,3.67-7.49,16.6-7.22-3.73-3.68,11.11,1.81-33.21,5.49,11.08,3.69-44.22-32.78-4.09-.42-36.47-3.69,18.42c-16.41-6.57.58-26.68-9.2-36.86l-5.55,58.97-10.63-6.16,3.64-67.22,25.01-.71,4.15-10.67-33.1-.12-3.74-151.1,29.45,1.86c-9.09-11.95-24.34,4.41-28.87-12.01l-.62-104.17,44.24-3.67,1.87,18.46,1.83-18.49c12.04.59,28.36-5.07,29.59,11.07l10.99-9.6-3.7-34.62c-17.97-2.69,2.14,28.44-9.14,29.32l-27.75-3.51-.02-33.19-3.63,36.88h-44.29s-3.66-40.56-3.66-40.56c2.43-2.03,53.4-.42,63.31-1.11,5.52-.38,9.99,2.1,14.11-4.46l-29.19-2.11-5.82-47.69-1.82,48-25.83-.06c9.32-16.43-3.5-33.69.23-51.38l47.69-3.94c3.09-12.5-11.29-1.92-18.45-7.35,7.79-11.11.48-20.75.03-31.37-1.37-32.58,2.5-65.59-3.7-97.66h29.5c-5.88,9.51-.24,17.48.17,27.49,1.16,28.21-1.32,56.76-.17,85,.18,4.48-2.78,13.71,3.65,12.85l.07-40.58,7.38-1.78-7.41-3.57c15.13-27.63,1.89-58.86.05-86.79l9.25,3.73c4.21-9.39-1.95-28.17,9.12-33.23-.14,19.64-5.39,41.76-5.23,60.83.03,3.73-.49,17.31,5.23,16.57l.07-44.26,7.32,3.74,3.68-14.76c-7.77,51.75,4.44,102.93,3.71,154.88l22.17-.03-.03-11.03-14.72.02,7.34,7.3-11.03.06-3.67-129.08c12.99,8.56,17.56-.65,29.43-3.68-1.06,3.63,3.73,7.75,3.73,9.21v60.85h3.69v-68.22c0-.61,3.62-10.78,7.34-9.2,7.3,40.6-1.64,81.7,3.77,121.65l3.67-36.84c15.36,3.73,38.64,3.89,54.47.97,4.58-.84,12.74,1.45,11.88-4.67h-66.38v-77.44l7.41,18.42,3.69-18.42,36.79,7.4c2.24-27.49,18.69-57.86,21.93-83.58,5.13-40.7-1-101.61-3.4-143.27-1.79-30.91.69-55.85-11.79-86-1.99-3.05-25.54-4.15-30.45-4.41-67.73-3.56-138.08,2.58-206.68.09-12.49-.45-24.4-4.93-38.97-1.43l-6.24-3.23c-11.43-23.21-29.2-46.83-48.83-63.6-41.93-35.82-112.31-81.52-167.89-86.55-99.58-9.03-187.11,42.17-247.05,117.93h-5.42c-.76-8.96-9.6-15.1-18.51-14.69l17.55,20.17-17.79,35.05c-6.49-3.04-12.1-5.32-19.4-6.12-52.26-5.73-113.13-.26-163.45,1.29-21.5.67-43.15-7.21-65.79,4.92l1.84-7.39-51.65,3.7,10.77,3.86c5.49,5.37-16.88,62.29-20.28,73.61-12.81,42.7-18.21,83.34-20.17,130.69-1.85,44.84,2.6,89.92.19,134.73,5.74.95,4.25-7.56,4.89-11.92,5.51-37.67-1.18-81.94,2.47-120.79,4.54-5.98,6.68.06,7.36,5.45,2.33,18.31-3.14,38.64-2.46,54.94.5,12.18,10.7,26.3,9.87,39.14,10.24-1.65-4.7-25.74,11.02-22.07-10.4,17.3,5.13,30.72,7.42,47.88,10.21-2.47-4.57-25.97,11-22.08l.06,44.21c6.44.86,3.47-8.37,3.65-12.85.43-10.43-.33-20.97.03-31.37l18.45,3.72c1.46,1.38-3.73,4.76-3.73,5.49v66.38c0,2.74,6,10.8,3.72,16.58l3.65.02v-92.19l7.33,7.35,11.07-25.77c-1.16,16.66.37,33.45,9.24,47.9,11.15-9.41-1.72-24.54,1.9-36.86l14.68,3.68-3.63,118.04c14.51-10.05,4.87,12.24-.06,16.64l7.6,3.8c-6.16,21.97-.6,46.9.07,69.75.27,9.04-2.08,17.92-1.9,25.94.08,3.59-.33,13.86,5.28,12.89-.97-69.5.45-139,.22-208.41-.1-30.06-15.75-47.59,29.28-31.24l7.42-29.53v106.94l-3.72-11.06-6.43,5.94-.87,53.06c11.42-3.34,4.46-12.66,5.11-19.61.53-5.63.49-22.83,5.92-24.64v62.69c-3.69,2.22-35.99-5.5-33.21,5.5l33.09,2,.15,36.74c6.44.86,3.46-8.37,3.65-12.85.39-9.2-.31-18.52.04-27.7l47.88,3.65-47.81-7.47c4.42-13.03.24-24.67.25-35.27,0-5.61,2.82-10.3,2.87-14.77.35-35.28-1.02-71.08.45-106.6.19-4.53-2.81-13.69,3.69-12.87v92.19h3.69v-84.82l11.06,7.38v140.13h3.69v-132.76c8.23,7.46,18.75-.54,23.79.38,5.93,1.08,2.65,14.36,13.06,10.66l2.77-25.01c.22-2.71.49-5.42.9-8.15l-.9,8.15c-2.01,25.3,3.79,49.75,4.7,74.63.85,23.36-1.03,46.92-.07,70.28.18,4.48-2.79,13.71,3.65,12.85-3.34-53.96,8.79-107.33-3.8-160.24l3.8-35.17c1.07,11.92-1.3,31.51,1.83,42.41,1.77,6.18,8.96,7.42,9.64,18.36,1.77,28.5-4.9,72.83-4.28,103.43.31,15.06,4.94,30.86,5.75,46.01l1.85-158.58,14.74-.02v66.38h7.38v-70.07l14.73-.02.05,22.12,3.67-22.09,15.01,6.05c-2.45,11.59-6.82,20.18-7.81,32.5-6,74.45,5.49,155.74-1.51,230.8-5.79,17.99-18.73,6.77-33.38,6.94-34.99.41-70.09,13.95-105.09,3.99-1.23.95,4.69,7.34,5.53,7.34h62.69c1.89,0,7.7-5.88,12.89-3.67,3.16,3.43-10.64,57.87,3.71,62.67v-62.69l55.33-.02-6,194.24c4.34,66.04-.11,131.46-1.37,196.69l-18.49,1.82,18.48,1.84v66.37h18.21l-7.11-25.8,16.61,25.78c16.78-1.44-10.37-24.35-5.55-29.47,3.98,5.96,13.77,3.67,14.23,4.25,1.83,2.34,4.67,19.51,4.32,25.24h498.47l2.89-228.64c18.34.69,59.23-6.62,40.55,20.26l7.35-1.84-.51,58.44-14.16,4.26.03-22.08-7.36,20.32-25.85,5.43,47.88.04,5.59,66.35-1.83-25.82,7.32,3.75v-14.81l-7.41-1.86,7.58-14.67c-7.43-3.52-8.9-3.39-7.5-12.92h14.72s-1.79,55.33-1.79,55.33c10.98-.72,6.15-5.78,6.62-10.37,1.69-16.72-4.91-22.72-4.84-24.17.15-3.03,3.95-28.32,11.05-20.81l.08,59.01,18.46-49.73-11.08,5.46v-14.73s20.37,3.59,20.37,3.59l1.69,22.2-11.02-3.65c3.73,10.49-.79,22.87-7.42,31.4l7.68,3.96c.5,9.48-6.47,20.78-16.72,20.22-2.82-.15.22-11.61-9.38-7.62l9.63,73.71h17.79c.84-8.23-2.6-19.14,7.62-25.78l5.47,11.02c9.24-12.2.25-23.12.7-26.89.4-3.34,9.45-16.79,12.26-21.01,5.17,4.69-4.2,21.82-3.93,23.84,1.21,8.79,10.92,16.59,2.08,31.43l14.7-7.42v-3.57c-11.75,1.71-5.34-23.87-7.29-33.22l11.09,13.52.23,28.63-13.58,5.63-.88,3.83h9.43l1.1-3.67c5.03-4.53,6.37-1.87,5.54,3.67h12.5c-.81-10.1,1.4-22.21,4.08-25.77ZM968.81,2188.76v-25.85l25.64.23,3.86,25.59-29.5.04ZM968.81,2129.71l29.51.04-3.69,22.1h-25.78s-.04-22.14-.04-22.14ZM994.78,2231.27l-15.16.14-7.07-31.61c9.1,6.74,11.74,10.81,20.25.06l5.54,14.67-14.75.05,14.75,3.67-3.57,13.02ZM1075.28,2232.53l-28.45-.07c-5.47-9.7-4.59-18.87-.2-28.8l29.13-.18-.48,29.05ZM1063.37,2188.67l-5.98-7.27-2.36,7.42-12.23-.3-3.93-21.86,36.92-3.76c-.75,16.97,10.35,25.32-12.41,25.77ZM1038.92,2155.53v-29.48s36.87,3.67,36.87,3.67l-.02,22.15c-7.36,2.3-17.81-3.87-23.48-2.73-4.78.96-6.79,8.5-13.37,6.38ZM1116.32,2188.76v-22.17h29.54v22.17h-29.54ZM1145.86,2229.32h-25.85v-25.85h25.85v25.85ZM1190.85,2228.49l-2.79-25.14,27.83-3.53.05,29.47-25.09-.79ZM1215.51,2188.33l-29.13.43v-25.85l33.21.04-4.09,25.39ZM1219.56,2155.55l-33.17-3.67v-22.16s33.23,0,33.23,0l-.06,25.83ZM1267.5,2192.44l-22.06-.02c-1.69-8.93,1.13-6.12,7.02-8.91-11.6-28.14,11.54-19.13,29.82-16.86-8.08,11.59-16.54,8.99-14.78,25.79ZM1249.1,2155.51l3.71-29.45,33.17,5.58c-2.98,21.98-16.5,25.93-36.88,23.87ZM1285.97,1998.82v123.54l-33.21.02-4.19-36.38-24.9-.11-4.1,36.46-29.46.03.02-33.19c-17.06-2.7-28.02-5.81-43.54,4.25.19,12.44,6.2,25.84-10.1,28.85-40.55,7.49-14.02-29.55-24.46-36.19-35.57-8.11-39.55,4.05-39.94,36.29l-33.19-3.73c13.05-49.33-52.15-47.56-40.57,3.7h-33.14s.01-132.73.01-132.73l16.07,3.64,4.09-7.36c10.76,10.8,41.55-3.51,54.89.17,3.43.95.14,11.94,13.19,3.87l2.07,7.09c5.1-13.56,10.25-8.84,21.86-11.12l3.95,11.12,3.53-10.7,27.8-.39-7.32,29.48,12.83-7.42,3.72,7.46-5.53-29.51,34.54.45c15.03,14.92,12.27,36.1,15.24,54.86,6.89-19.38-1.55-36.93-5.51-55.33l44.42,1.68-.23,20.4-7.3-14.71c-.54,12.7-1.87,27.5,9.2,36.84l5.56-44.19,27.18.4,7.81,14.35,9.2-14.77.06,18.42,11.02-3.72-7.37-10.99,17.82,1.07,2.46,6.31,9.21-7.4c1.25,3.77-3.68,7.84-3.68,9.19ZM1254.78,1978.38c-91.03-1.88-182.27,2.01-273.33-.17l-7.06,7.69c-10.82-4.76-2.19-49.33,3.55-50.51,20.67,5.99,43.36-1.01,62.65-1.26,34.52-.45,69.61-.4,103.26,0,17.21.2,102.86-.68,111.88,4.63,1.38.81,3.36,8.3,8.22,11.95,8.34,6.27,19.42,13.57,29.38,16.83-3.5,23.71-23.66,11.14-38.55,10.84ZM1297.04,2196.08l-3.66-73.71,10.65,36.53-6.86,1.89c2.33,6.27,16.2,37.25-.13,35.28ZM1845.95,2372.45l-16.01,4.4c-3.72-53.42-3.63-107.21-5.39-160.46-.24-7.41-.25-5.79,7.17-5.52l.05,25.79,11-3.67-3.63,22.09,7.3-7.34-.5,124.7ZM1871.98,2213.07l4.01,16.2h-11.05s.05-14.69.05-14.69c-6.09,9.02-3.35,15.93-14.77,18.4-1.78-29.45,6.66-26.96,29.43-29.5,2.15,9.57-2.58,5.54-7.67,9.58ZM1879.55,2192.41l-25.43-3.91-.27-21.91,33.17-3.67-7.47,29.48ZM1887.04,2151.85l-36.85-.02,3.88-21.88,36.67-.19-3.7,22.08ZM1952.78,2188.09l-25.13,4.32,3.85-25.6,25.61-.18-4.33,21.46ZM1957.24,2153.98l-21.87-.03-7.69-4.01,3.82-20.01,29.33-.22-3.59,24.27ZM1990.31,2232.95l4.2-25.24,21.59-4.22c4.17,15.83-9.71,32.49-25.79,29.46ZM1997.71,2192.41v-29.47s29.48,3.71,29.48,3.71c-2.86,18.39-10.36,26.25-29.48,25.75ZM1997.68,2151.82l4.4-17.65,25.28-2.68,3.53,20.26c-11.43,4.49-21.59,1.36-33.21.07ZM1997.67,2118.69c1.63-37.34,3.47-38.26-33.19-33.22l.04,36.91-30.85-.53-5.53-5.53-.54-30.8-27.7-3.84-7.79,5.49-1.38,35.19-36.87.02-4.21-36.38-32.68-.54-1.31,31.56-35.53,9.01v-40.57s-32.69.53-32.69.53l-4.19,40.07-36.38-4.23c4.33-45.3-5.42-90.79,3.56-135.51l231.91-.38-14.7,22.11c11.95-8.3,22.38-4.19,18.38-22.15,27.78-2.47,53.38-2.48,81.17,0l3.68,132.78h-33.22ZM1805.89,2327.02c19.59-12.46,5.48-52.12,7.27-77.58.4-5.64.8-21.96,7.52-23.83v147.51c-4.54,6.01-6.69-.07-7.38-5.47-1.79-13.93,6.6-36.68-7.41-40.63ZM1792.09,2210.19c.82.93,7.56,2.72,10.12,4.41l3.68-11.09v29.5s-22.05,0-22.05,0v-33.19c12.2-2.42,7.64,9.69,8.25,10.38ZM1783.78,2188.76v-22.16s29.49-3.66,29.49-3.66l-4.05,25.39-25.44.43ZM1780.1,2151.88v-22.17s36.89.06,36.89.06l-3.7,22.08-33.19.03ZM1756.34,1934.43c13.39-2.43,24.21,3.4,36.53,3.69,74.19,1.79,148.68-2.01,222.84.29l11.63,38.03c-.29,2.64-10.89,4.33-13.61,4.37-57.33.84-116.11-5.1-173.18-5.33-44.59-.18-89.24,4.49-134.19,3.02-1.8-14.93,39.61-42.19,49.98-44.07ZM1710.48,2137.51l32.76-4.11.02,22.16-36.88-.04,4.1-18.01ZM1721.16,2181.33l-3.74-14.7,25.8-3.69-3.72,25.78c-11.05,2.92-7.94-11.79-11.06-18.4l-7.28,11.01ZM1748.75,2196.12l16.66,33.15,7.29-18.39,3.76,40.53,5.67-11.3,23.78.28c1.41,3.98-3.67,8.05-3.67,9.19,0,40.56.2,81.13,0,121.69,0,.79-2.52,1.98-2.86,3.69.79,8.71,19.97,4.26,21.33,5.52,1.63,1.51,2.46,40.52,1.85,44.39-1.5,9.46-4.34,7.66-12.93,7.27l3.66-47.93h-11.05c8.67,17.07-3.83,33.05,3.67,51.58l-22.13.04c.82-49.92,3.18-99.49,3.54-149.52.07-9.25,8.69-25.91-3.48-31.18l-3.74,177.01h-11.02c-8.32-7.84,5.13-145.29-.23-167.6l-36.66-61.01c8.67-2.12,13.9,2.22,16.57-7.41ZM1769.04,2481.98v-38.82s33.01.22,33.01.22l3.89,36.69-36.9,1.91ZM1805.63,2487.74l-.21,109.8-39.88,4.05.35-109.94,39.75-3.91ZM1735.9,2811.95c1.39-13.03,9.51-25.05,12.14-37.65,1.28-6.11-.98-11.78-.16-18.22.52-4.06,1.13-18.12,6.38-17.86-1.54,25.63.9,53.17-18.36,73.73ZM1813.3,2752.95h-51.63l3.67-143.84,40.19.42c6.25,5.33,4.35,99.54,4.31,115.97-.02,6.42-3.37,11.49-3.57,14.81-.05.85,11.53,2.83,7.03,12.64ZM1909.17,2861.71l-14.7,16.59c-4.33-18.59-2.95-21.56,4.15-36.11l14.25-.71c-6.46,6.27-1.73,16.5-11.01,14.76l7.31,5.46Z"/>
  <path d="M2001.37,2937.36l-18.42,3.62,7.32-11.02-10.99-.02c4.21,20.85,4.57,40.93-7.8,55.32h24.35c-4.58-18.57-11.71-36.98,5.55-47.89Z"/>
  <polygon points="1928.67 2985.26 1933.59 2985.26 1929.48 2974.22 1928.67 2985.26"/>
  <path d="M1967.62,2984.5c1.27-2.02-2.2-6.9-.9-10.28,2.18-5.67,6.26-6.75,7.67-16.05.95-6.29-2.98-17.53-2.56-24.51l-11.01,14.71-.09-68.27-7.28-1.76c3.34,10.28-6.31,10.7-8.47,15.61-6.15,14.04-1.63,21.08-2.87,29.96-.19,1.36-14.06,12.77-14.66,22.49l13.08,9.31,9.17-10.99-13.53,40.54h30.65c.33-.23.61-.47.79-.76Z"/>
  <path d="M2263.15,2963.12l3.3-10.64-6.92-4.05,11-11.1-14.68,7.37-7.4-160.48-7.38-5.42c-.58,68.62,10.86,137.96,5.84,206.46h8.94v-29.47l7.29,7.33Z"/>
  <path d="M636.94,2509.52c-8.36-36.49-2.74-76.96.04-114.26h3.61c.35,9.17-.35,18.48.04,27.68.19,4.48-2.79,13.71,3.65,12.85.38-10.39-.39-20.94.04-31.37.19-4.53-2.81-13.69,3.69-12.87v81.13h3.69v-59c6.49-.82,3.5,8.34,3.69,12.87.79,19.01-.55,38.24-.03,57.23l-7.32-3.74v59c13.04,2.48,6.5-18.35,14.59-23.8l14.87-1.99,3.67,29.49,3.73-140.14,25.85-1.82-7.49-9.18c-3.84-4.03-1.56,12.05-12.81,7.3-3.57-1.51-4.91-5.56-5.56-9.19-6.42-35.94,5.31-93.82.52-132.23,3.57-12.2,23.05,6.23,31.76-3.14,6.45-6.94,2.49-33.37,4.62-43.47,12.2,5.72,8,23.43,3.63,33.15,11.48-4.49,23.08,10.66,24.48,10.88,1.46.23,27.51.62,28.94.43,13.15-1.75,5.15-8.75,5.93-12.54.65-3.17,6.48-.87,7.37-7.68,3.14-24.02,5.88-57.23,7.01-81.43,2.91-61.93-.9-124.34,0-186.17l-3.67,14.71-10.59-8.52,18.12-37.39,44.09-9.35-142.06-.27c-63.12,9.23-126.35-1.46-189.79.25-2.6,15.49,19.29,3.26,27.46,3.79,7.3.47,13.01,7.11,20.45,7.3-16.64,24.46-31.19,56.02-38.73,84.75-5.39,20.56-2.6,40.82-12.91,57.25,15.9,5.69,4.1,30.4,3.56,44.02-.66,16.57.82,33.37.11,49.92-4.43-1.1-7.08-21.47-7.09-24.53-.02-16.17,4.61-36.24,4.74-53.8.04-4.83,3.26-8.12-4.96-10.15-6.69,53.07-1.47,102.53,7.38,154.86,6.32.89,3.86-8.79,3.76-13.03-.46-19.49-3.34-52.1-.08-69.9,1.16-6.35,3.97-10.39,11.04-9.21-17.2,29.61-2.33,70.23-3.67,103.21,13.72,3.24.3-18.88,3.69-25.78l17.09,16.03c-.39,7.79,10.12,16.27,15.43,12.46,1.78-1.28-1.76-7.92,4.3-6.37l.29,82.78-11.29,5.66c12.41,1.53,14.4,3.02,16.57,14.84,4.3-.04-3.02-18.29,9.18-14.84l-7.43-6-3.59-78.74,11.04-.05c4.15,3.94-8.11,43.12,7.26,40.68l-.04,7.16-7.49,2.34,3.99,42.01c13.99,2.59,4.44-10.63,4.91-17.38.23-3.24,2.41-5.63,2.44-6.57,1.38-34.19,0-68.99,0-103.25,0-.63,4.97-5.8,7.34-5.53l-3.62,44.25,11.03-3.68v143.82c-21.13,1.83-40.42-9.76-60.93-7.52-9.07.99-15.27,6.64-22.24,7.32-18.43,1.8-41.7-5.04-56.94,5.75l140.1,1.85c-8.8,18.43-.45,37.26-.34,53.83.05,7.29-3.5,13.77-3.3,21.71.25,10.06.79,25.42,1.96,35.06.52,4.25-.33,15.53,5.35,14.74l3.74-276.58,11.05.04v258.08s11.06,0,11.06,0ZM655.35,2387.85c-.44-1.6-.71-3.33-.92-5.11l-6.38-35.42.11,38.05-11.18,6.18-.32-131.13,15.03-16.34-3.65,58.97c2.37.27,7.34-4.9,7.34-5.53v-57.16c6.49-.82,3.5,8.34,3.69,12.87.71,17.12-.7,34.37.26,51.49l-11.32,2.05c.27,5.92,10.1,5.41,11.17,9.91,3.71,15.53-7.1,46.04-4.76,66.05l.92,5.11ZM677.49,2509.57h-18.4l3.71-110.61,7.38,5.43c-3.45-20.2,1.96-42.6,1.56-62.61-.08-3.84.49-17.31-5.29-16.6v62.69h-3.69v-132.76l14.72,3.68,3.68-18.43-3.67,269.21ZM684.9,2203.51c11.12.47,16.96,4.91,25.76-3.71l.04,36.89c-26.85,4.31-24.42-13.62-25.8-33.19ZM681.23,2192.42l1.72-26.15,24.23-1.63,3.54,24.11-29.49,3.67ZM681.18,2129.71h29.54v18.48s-29.48,3.67-29.48,3.67l-.06-22.14ZM762.35,2236.66c5.18-16.81-14.24-31.79,14.72-33.15l-3.67,11,11.02-7.32.02,29.48h-22.09ZM780.78,2192.45h-22.16c-.79-6.25,1.48-13.99.11-19.79-1.02-4.32-9.04.05-7.45-6.01h33.17s-3.67,25.8-3.67,25.8ZM751.24,2129.74l24.06-3.57,3.87,7.42c-3.24,3.53-3.76,10.71-6.71,13.61-13.43,13.21-25.88-1.07-21.22-17.46ZM789.98,1985.88l1.82,132.77c-4.55,5.98-6.68-.06-7.36-5.45-2.78-21.85,2.88-47.55,3.71-69.87.21-5.79-3.52-11.78-3.35-18.31.31-11.83,5.08-26.76,5.18-39.14ZM576.05,1936.07l212.06-1.77-16.98,44.47-222.69,3.42c6.41-11.04,16.03-41.84,27.61-46.12ZM548.19,2146.17l.72-19.63,28.83-.29.19,25.62-22.13,3.64c9.2-12.88-6.57-3.79-7.6-9.35ZM559.33,2231.28l.21-27.84,22.07.07v29.47s-22.29-1.69-22.29-1.69ZM556.53,2191.68l-4.39-25.05,25.82-.04,3.66,29.49-25.09-4.4ZM577.94,2114.95l-29.46,3.72v-132.75s14.61,3.91,14.61,3.91l1.95,33.01,1.83-33.24,36.92.04,1.78,7.38c5.23-14.81,23.02-5.35,34.97-11.11l5.61,29.5c8.21-7.78,3.73-20.14,1.87-29.46,10.19-1.13,17.75-.47,18.47,11.01l3.67-11.08,14.7,3.77-7.33,7.3,12.88,7.45-1.83-18.46,25.48,4.06c1.16,1.26-6.91,31.23,3.98,32.79l1.8-33.27,12.97-3.59,3.67,29.47.03-29.47,11.05-.04,1.86,36.93,2.42-30.81,14.16-6.07c.92,5.93-6.13,2.33-8.62,8.06-3.28,7.56-2.45,17.03-2.39,25.11l7.31-3.73,5.56,29.56,3.48-41.03-7.16,7.85c-6.84-.49-.15-32.42,16.58-25.83-1.36,42.85-6.54,86.48.06,129.03l-33.22,3.69c8.91-29.63-13.46-42.38-36.29-27.24l3.08,30.91-33.21-3.64-1.59-29.75c-10.21-7.13-29.22-5.09-35.63,5.63-6.75,11.27,12.09,32.89-29.1,24.06l-.59-30.74c-18.96-14.43-51.32-.07-36.33,27.06ZM644.49,2131.47l-.18,20.43-29.48-3.78c-4.43-20.98,14.04-19.55,29.66-16.65ZM618.44,2160.87l29.56,2.09-3.71,29.47-25.63-.14c-.38-8.65-8.79-25.51-.22-31.42ZM618.49,2203.47l22.11.06,2.18,29.62c-27.37,13.48-25.64-9.11-24.28-29.68Z"/>
  <path d="M1389.26,1665.07l16.63-14.76c1.14,5.57,8.14,11.33,12.82,7.39,4.63-3.91-15.86-22.26-22.07-14.72,3.07-16.99-3.34-33.92-3.95-49.68-3.07-79.61,7.9-170.27,7.73-250.76-.01-4.9-2.25-8.67-3.83-12.99h62.7c-3.66,7.93-6.44,14.92,3.61,18.41.49-15.51,13.68-3.97,20.4-14.75,3.2,12.16,13.07,6.63,23.91,7.35l-16.65-3.73c-9.27-10.45,24.99-11.12,33.26-11.32,4.56-.11,44,2.64,46.07,4.06l-7.33,14.69,22.1-3.71-7.37-10.99,29.16.31,4.05,313.07-27.17-.48-6.15-8.76c-.66-34.28,13.11-188.98-4.49-207.44l-139.22-.83-3.85,134.39c1.66,18.63,6.2,52.02,3.63,70.05-.58,4.11-1.44,7.25-5.02,9.75l-13.25,5.19c0,1.24,11.24,5.34,12.94,5.53,62.42,7.05,137.22-5.25,200.98,0l-14.75-3.72c8.3-24.8.39-54.44-.15-79.1-1.78-80.55,0-161.75,3.88-241.71l7.36-1.78c-11.49-5.58-16.4-10.15-14.8-24.03-16.81-2.33,3.15,15.65-9.07,21.63l-27.77-3.2,9.13-7.48-127.17,7.49,3.72-7.3c-17.33-6.64-31.84,10.45-51.6,11.06l-3.71-18.45c29.8,2.47,59.93-.3,89.47.96,7.05.3,16.86,5.41,26.86,5.86,4.38.2,37.12-1.89,38.55-3.2-.43-4.58,3.36-7.79-4.74-6.3-10.88,2-11.59-1.04-15.55-1.04h-53.47c-.82-6.49,8.34-3.5,12.87-3.69,43.65-1.81,87.96,2.54,130.95-3.73-7.1-8.14-32.16-13.24-42.98-14.48-20.98-2.4-46.5,3.72-65.82,3.69-12.97-.02-28.93-6.28-39.82-6.38-28.03-.26-61.13,10.78-87.35-1.25l-3.71,33.19,11.01-3.66.27,16.17-14.13,7.6,6.76,55.38-3.89,256.41-18.49,7.36,29.48.07-11.01,18.38ZM1424.08,1296.56l2.07-7.58,9.14,7.38c4.04-13.14,26.54-8.12,38.73-7.36l-6.83,4.04,3.18,6.95-7.36-.03-1.57-7.02-50.07,7.07c-2.02-14.06,6.62-3.49,12.71-3.44Z"/>
  <path d="M668.32,1676.18l5.46-.09,1.58-6.99,79.6,3.39c.56-44.88,9.87-87.91-.03-132.76l33.24-5.55-29.38-2,.38-45.43,5.42-5.35c10.43.98,24.69,3.9,34.79,1.9,6.63-1.31,5.77-4.42,3.52-6.27-28.89-7.38-55.31-7.65-84.85-3.69l-.21-20.01c1.18-6.97,59.06-.93,68.51-2.13,5.39-.68,11.42-2.83,5.45-7.37-32.71,2.12-65.8-1.92-98.36-2.27-5.5-.06-28.6-1.2-30.67,4.11,6.52,11.62,46.8-4.32,47.99,3.95l-.05,23.7c-13.84,4.71-59.46-12.19-66.36,1.88-5.02,10.25,19.13.7,21.67,11.3l-7.16,54.84,14.74,8.04-3.98,54.32-5.52,5.54c-9.5,1.39-19.04-.22-28.57.93-3.91.47-17.27,1.45-17,6.91l47.89-3.67v51.64c-19.29-5.43-39.5-9.26-58.97-3.65-9.34,9.22,66.18.85,60.87,14.74ZM666.48,1536l5.26-51.84,38.94-3.43-3.65,40.53c9.65.84,6.11.49,7.23-5.54,2.04-10.94,2.98-23.79,3.85-34.97,43.52-7.36,31.02,16.21,33.16,47.91-26.17,3.51-65.88-11.39-84.79,7.34Z"/>
  <path d="M2395.93,1665.05c1.11-5.25-7.07-5.01-10.59-5.16-15.62-.69-33.05-2.37-48.34,1.54l-2.04-40.79,16.78-5.34-18.47-1.88c5.56-28.12.76-55.95,3.68-84.78-1.63-1-35.03-4.16-36.88-3.69-.57.15-1.95,6.91-9.14,7.45-11.24.84-32.07-8-46.2-3.74-3.14-3.15,6.65-36.82-7.32-40.58v47.93s14.69-3.67,14.69-3.67l3.71,70.03-27.73-3.6-1.77,7.27,29.47,3.76,3.71,47.88-47.91.06c.03,6.22,12.27,7.02,16.55,7.36,36.75,2.95,74.68,1.2,110.69,0,19-.63,38.13.44,57.1-.06Z"/>
  <path d="M2344.35,1480.74c-6.3,8.98.58,17.77-.11,27.2-.56,7.58-6.75,15.44-7.28,20.71,3.91,2.4,3.45,10.93,14.73,7.39l1.63-55.56c6.53-9.36,31.06,4.54,27.9-10.81-11.02,1.94-24.5-4.39-34.68-3.46-6.7.61-11.06,5.69-18,6.05-27.16,1.41-71.96-9.05-96.68-6.58-7.99.8-11.98,3.04-16.56,9.56-.96,11.28,3.99,1.79,5.5,1.79h71.91l.02,47.92,7.36.02-.03-44.23h44.3Z"/>
  <path d="M2030.87,1668.79l-4.1-127.36,7.77-9.05h-88.46s22.12,3.65,22.12,3.65c-.65,34.73-3.99,78.61-.07,112.53,4.2,36.35,38.22,11.2,62.75,20.23Z"/>
  <path d="M1027.84,1650.34c-3.19-4.4,0-94.1,0-108.79,0-1.56,7.77-5.37,7.37-9.18l-41.93,3.86-7.81-7.56c-2.72,2.25-5.01,5.09-6.47,8.3-9.45,20.73.66,81.91-5.66,108.73,4.18,19.82,43.69-2.9,48.92,15.7l12.92-7.42c1.64-6.51-6.55-2.54-7.35-3.64Z"/>
  <path d="M2261.56,1292.65c1.96,2.43.04,33.62,5.37,40.52,6.41.88,3.47-8.39,3.64-12.84.35-9.21-.29-18.51.04-27.68l7.3,14.71,7.46-25.77c13.64,7.32,11.87,18.93,10.98,33.15l-7.3-11.03-.18,12.9,11.45,3.86c-4.52,13.24,7.93,36.38-3.9,42.22l-3.69-18.42-7.38,29.46,5.98-7.43,12.43.09c.8.6-5.95,18.32,3.68,18.42v-70.07l7.42,70.04c6.57-2.56,4.15-21.86,3.8-27.79-2.8-47.66-9.84-95.31-7.62-143.54l-7.12-10.97c-24.1-1.49-52.6-6.33-44.33,28.57.79,3.34,9.11,2.35,9.3,11.63.24,12.1-10.27,22.61-7.39,35.37l-16.74,3.54c1.67,8.25,12.73,5.99,16.8,11.04Z"/>
  <path d="M1054.87,1062.61c21.51-.65,45.51-10.49,68.86-5.98,4.43,4.51-10.42,43.12-14.59,49.01-2.93,4.13-9.41,5.07-13.08,10.03-5.79,7.82-12.58,88.96-9.2,92.17l11.03-.04c-.5-9.58-4.19-17.6-3.97-27.6.22-10.39,8.85-56.4,15.13-31.43,10.48-10.08,10.71-3.65,20.85-1.24,2.53.6,6.75-2.39,7.99-1.66,1.11.65,12.23,19.2,13.06,22.15,2.51,8.98-4.81,26.84,5.92,32.39l3.71-71.54c-4.78-14.3-19.03-24.93-23.69-39.31-3.9-12.05.56-22.87-9.47-32.9,7.98-5.7,39.32,13.38,36.89-3.71l-90.03-7.08c-32.97,11.07-68.82,4.33-102.94,8.56-3.56.44-10.8.65-9.86,5.84,30.13-3.02,64.19,3.21,93.39,2.33Z"/>
  <path d="M758.6,1248.39l-10.99,7.37-7.3-49.89c-57.65-27.53-37.02,45.81-40.7,79.43l-7.32-3.75,3.62,33.22-10.99-14.73c.61,14.95-4.63,35.64,10.99,44.23,5.07-27.6-.96-74.31,22.12-92.19-6.34,48.14,1.76,97.66-3.7,145.62,2.81,6.13,7.35-6.71,7.42-7.33,3.42-29.22-2.51-64.14,0-94.03l22.09,36.88c3.11-24.8,8.41-46.48,3.51-71.82.85-4.62,16.58,3.27,11.24-12.99Z"/>
  <path d="M511.58,1665.11l3.16-115.67c-3.68-11.23-33.74-4.23-43.73-6.01,6.13,18.05-1.98,42.24-3.42,61.4-1.4,18.66,6.18,44.18-7.64,60.21l51.64.07Z"/>
  <path d="M1864.97,1141.47l3.66,11.07,3.69-11.07c44.39,3.56,21.8,54.98,29.53,84.77l18.31-90.84c.02-9.71-18.94-32.3-.24-34.77l.28-7.13c-8.12,4.84-12.34-4.24-18.39-5.56-13.94-3.03-31.71-1.95-45.5,1.71-6.14,3.43-13.79,100.67-6.1,114.46,6.38.89,3.51-8.39,3.66-12.82.27-8.19-1.43-18.33.03-25.82,1.67-8.57,12.79-13.09,11.05-24Z"/>
  <path d="M928.29,1215.16l20.09-.22,2.05,11.3c6.07,1.59,1.7-6.42,6-7.46,4.82-1.16,10.94.6,16.07.09,4.19-11.59-9.32-5.52-10.93-7.45-1.22-1.46-.39-11.9,1.55-14.87,4.83-7.4,15.66,3.41,20.43-5.38l-11-1.79c4.66-18.7,7.73-38.41-3.72-55.27l47.92-3.76-30.86-6.18-15.26,6.12-4.97-5.94-1.03-26.62c-17.03-6.18-25.61-9.81-30.38,10.09-2.31,9.62-.18,84.84,2.34,93.54.97,3.37,7.78,9.14,6.43,10.12l-14.73,3.69Z"/>
  <path d="M2049.35,1185.7c1.38-1.55,14.61,13.05,20.36,3.8,4.81-7.75-2.95-22.76,5.38-25.91-.44,17.21-.59,33.21,3.64,50.01,1.55,6.18-3.7,10.77,7.44,8.95,2.84-10.74-3.9-22.19-3.84-31.52.05-7.22,5.57-12.21,6.41-20.5,2.28-22.45-6.37-44.88-3.28-67.42-2.27-7.22-29.96-13.73-37.81-2.02-17.6,26.29-5.99,69.82-5.7,99.33l7.39-14.73Z"/>
  <path d="M282.89,2797.22l-7.35,20.23-7.33-1.83c-2.06,7.17,7.34,9.55,6.71,15.92-1.19,11.96-14.6,20.92-14.2,31.93l-22.03-3.6c-.7-7.15,5.6-9.72,7.3-16.67,1.35-5.5-1.26-12.61,0-17.81.84-3.48,6.98-2.1,7.29-2.5,9.33-12.25-11.52,1.71-7.22-10.9l17.96-4.24-1.34-17.91-8.58,5.45,3.05,9.25c-12.9-4.34-13.59,4.94-17.69,7.06-7.22,3.72-20.94,6.65-26.66,13.36-6.79,7.96,2.56,27.65-12.89,31.29l-1.99-7.08-7.09-.32c-4.89,16.78-18.88,23.22-18.65,42.31.09,7.33.33,5.93,7.5,5.62-1.31-32.12,16.69-37.86,44.25-36.86.62,6.07-8.21,4.24-11.02,9.23-3.03,5.38,4.54,7.65,7.34,5.46,1.1-.86-3.21-10.77,7.37-7.33l-11.01,25.79,11-3.68c-5.5,12.34,7.8,14.68,7.75,20.13-.07,9.09-14.92,18.49-16.86,31.7l3.54,7.05,27.24-4.09,6.03-14.21-1.86,11.01,26.03-5.93-.25-16.19c-4.22,1.71-8.44,7.36-7.45-1.89,1.12-10.49,8.67-24.5,11.2-34.95l-11.06-3.66c19.06.15,17.04-5.58,22.1-22.14l-18.42,3.63,7.32-62.65Z"/>
  <path d="M2557.8,1536.42c-43.52-17.59-26.78,47.03-25.12,71.46,1.15,16.94-11.21,53.81,21.82,42.47l-3.66,11.02,11.06.03v-94.03c0-5.78-7.13-21.24-4.1-30.95Z"/>
  <path d="M637.2,2832.41c4.74,41.34-9.44,88.93-4.12,129.07,1.06,8,2.79,11.69,9.46,16.39l9.14-9.22,3.71-145.65-29.47,3.74,11.29,5.67Z"/>
  <path d="M2329.61,2587l3.69,151.19c8.31-2.17,7.26-11.66,7.37-18.46l7.26,3.69,3.55-13.36-3.65-119.2-18.22-3.86Z"/>
  <path d="M1416.93,1687.19c-13.3-.23-28.12-8.54-42.49,1.87.06,6.56,63.97,1.7,71.8,1.68,62.5-.16,125.74,1.58,187.75-.07l4.08,7.63c7.96-7.39,20.19-10.77,29.65-3.78l1.77-7.29c-84.27-12.65-168.51,1.43-252.56-.04Z"/>
  <path d="M2119.37,2159.16c-3.2-36.65,4.67-76.63-3.93-113.99l-14.49-.25v106.94l7.37.03-11.05,3.69c4.02,11.51,13.25,5.7,22.11,3.58Z"/>
  <path d="M2543.17,2149.63c-.5-5.1,4.02-13.92,4.15-21.59.22-13.78,1.83-85.25-3.91-90.49-3.86-3.52-8.71,1.14-7.94,6.47l-6.72-2.82c-2.64,39.5,6.9,79.23-.02,118.01h22.09c4.39-9.41-7.31-6.21-7.64-9.58Z"/>
  <path d="M465.51,2155.52l8.8-20.57,7.75-93.73c-10.1.03-19.85-3.11-22.13,9.22-3.05,16.44.26,47.84.18,66.53-.06,14.07-9.93,26.4,5.4,38.55Z"/>
  <path d="M860.05,2789.79c-13.47,23.53-8.37,49.82-9.07,75.79-.45,16.81-13.29,39.87,7.16,49.63,14.3-20.88,6.55-38.57,7.16-60.88.59-21.38,12.62-45.34-5.26-64.54Z"/>
  <path d="M402.08,2336.38c28.12,8.16,61.34,2.71,96.54,3.51l38.73-7.3-217.59-1.88c24.75,11.66,58.1-1.35,82.31,5.67Z"/>
  <path d="M1097.94,1510.21c8.76-1.94,4.4-6.45,4.83-10.34.85-7.71,2.55-17.59,2.71-24.54,1.1-49.8-6.71-113.49-.49-162.66.92-7.28,11.54-4.63,7.63-16.33l-7.3,7.34c-.07-26.98,4.75-52.08,3.65-79.3-.18-4.48,2.78-13.72-3.65-12.85-4.36,49.41-6.71,99.72-7.53,149.17-.2,11.9,6.83,25.69-.06,40.57l.2,108.93Z"/>
  <path d="M2153.15,2743.15l14.17,6.07c-1.83-4.9-6.19-6.9-7.3-12.95-.71-3.91-2.99-23.25,3.57-23.87l11.1,36.85v-88.5l36.91-1.84-55.33-1.87-3.13,86.1Z"/>
  <path d="M1142.15,1362.7v-70.07l3.65.02,3.77,25.79c11.97-3.67,3.65-10.34,3.65-12.9v-90.35l-7.6,57.4,2.08,20.02c-12.93-23.15,1.15-56.61-6.09-82.45l-6.99-4.5-21.98,2.18,3.72,55.26,7.3-14.71-3.62,99.53,10.12-9.32-2.76-127.12,11.05.02v151.19h3.69Z"/>
  <path d="M891.26,2135.13c2.59-15.52,5.15-71.26.78-85.34-.98-3.16-2.43-12.08-6.16-12.17-10.89-.26-9.11,18.87-9.49,27.6-1.27,29.06,3.13,60.74.3,90.31l3.69-18.4,3.68,7.36c4.97-.64,6.48-5,7.21-9.36Z"/>
  <path d="M2442.61,2800.58c-.97-25.05-8.5-50.88-10.04-75.25-1.07-16.95,6.13-34.85.25-53.53-14.25-2.93-3.72,18.66-3.51,27.52.96,40.92,3.21,82.21,7.09,118.32,2.81,26.16-3.34,54.37.18,80.95l7.28,35.04c-7.23-44.13.44-89.2-1.25-133.04Z"/>
  <path d="M629.64,2703.09l-.09,101.5c15.34-.91,34.39,1.48,49.18-1.53,3.7-.75,10.76-.53,9.82-5.82l-36.86,3.65v-108.79c0-2.13,6.62-6.47-3.65-9.22l-.05,118.02-11.03-.04c5.67-10.62-.02-21.76-.02-27.64v-71.91l-7.31,1.77Z"/>
  <path d="M2691,2649.67c-4.67,46.24,9.51,87.92,5.47,134.61-.51,5.87-10.09,17.15-5.46,27.65,8.99-2.27-2.62-18.38,9.85-19.41,4.07-60.62-3.95-120.99-6.19-181.6-.17-4.47,2.76-13.71-3.66-12.84-4.46,7.21,1.59,46.13-.05,47.9-7.32,7.92-6.12-9.38-11.01-7.32l-3.73,11,14.78.02Z"/>
  <path d="M1920.25,2387.87l-6.05,7.18,2.38,155.09h-18.44c-3.46,15.67,17.72,2.76,18.38,3.68l.07,11.05-14.18.52-4.25,17.91,21.36-15.54.73-13.93,29.52-1.89-29.52-1.81v-162.26Z"/>
  <path d="M709.72,1787.79c-1.7-2.15-12.25-6.3-13.75-4.68,5.54,15.02-11.32,79.12,1.85,84.77,1.44.62,9.28,1.36,9.22-1.86-3.49-20.22,15.55-62.01,2.68-78.24Z"/>
  <path d="M282.83,2415.42c-1.56,21-2.41,49.13-2.68,70.34-.06,4.76.16,34.96,4.62,34.9l6.3-117.23,39.77-8.14c-31.13-6.84-65.13,3.46-97.76-.05l-5.47,7.38h59c-1.73,4.36-3.42,7.84-3.79,12.8Z"/>
  <path d="M190.76,2964.84l-6.46-2.34c-.47-25.66,30.93-23.73,24.85-50.98-14.88,8.94-2.98,26.13-29.45,25.79l1.85-14.71c-.98,6.82-13.12,16.77-14.16,19.34-4.04,10,2.09,15.9.58,22.25-1.18,4.95-8.72,6.98-6.68,13.71l11.02-3.66-3.65,11.03c15.04-1.33,16.49-7.21,22.12-20.42Z"/>
  <path d="M2703.98,2919.24l-68.31,5.16c16.98,9.37,46.53,1.73,66.32,1.86l3.68,36.86,3.71-75.82-11.01-90.08,5.6,122.03Z"/>
  <path d="M1887.02,1248.4l-7.3,11.03-3.69-18.4c-.25,25.48-4.92,56.34,7.36,79.4l-7.08,3.25,3.41,79.58c12.41-11.25,4.25-43.18,4.55-59.93.34-19.13,2.84-40.6,2.99-59.75.09-11.72-.44-23.5-.24-35.18Z"/>
  <path d="M627.76,1089.84c12.1,3.53,1.56-20.85,2.23-23.7l5.65-5.27,130.34-7.88c-49-10.22-98.12,4.16-147.48,0,11.01,6.08,5.15,35.66,9.26,36.86Z"/>
  <path d="M496.27,2864.13l-14.21-.55v64.53c0,3.93,10.62,7.06,14.73,5.51-3.5-23.58,10.15-47.05-.53-69.5Z"/>
  <path d="M2430.77,2445.03l-5.28-12.89-.6,122.94c-4.69,14.53-28.74-6.19-36.28,6.06l40.54,3.75-1.86,22.09c8.4-4.69,3.41-17.17,6.11-21.52,3.59-5.76,23.56-.38,25.23-7.93l-27.71-3.54-.14-108.97Z"/>
  <path d="M900.58,1115.65c-.15-26.1,13.67-60.48-22.47-66.05-3.82-.59-13.47-3.06-12.51,3.3,11.5,4.07,33.14,1.43,29.48,18.48h-75.6c-3.05,0-12.43-5.21-12.89,3.65l84.97,5.42,9.01,35.2Z"/>
  <path d="M983.63,1768.35l-.03,81.11,7.3-1.78c-9.09-10.45,2.64-8.14,3.54-11.98,3.33-14.16,8.1-51.87-.8-62.65-.88-1.06-9.56-5.03-10-4.7Z"/>
  <path d="M1905.48,1384.81l-.02-154.86c-6.71,1.39-6.85,7.25-7.47,12.77-3.22,28.67-2.57,107.63,2.29,136.04.64,3.74-5.97,8.7,5.2,6.05Z"/>
  <path d="M2464.31,1104.43c-45.64-5.44-92.77-9.92-138.41-3.51-.86,6.44,8.36,3.47,12.85,3.65,25.53,1.05,52.08-1.65,77.42.06,19.65,1.32,39.81,11.35,60.91,7.28-1.41-6.76-7.24-6.82-12.77-7.48Z"/>
  <path d="M1505.37,1381.12c-6.94,9.87,23.86,38.92,27.49,36.77,3.84-11.94,17.36-12.35,14.92-29.36l-14.72,3.64-1.8-11-16.64,18.37,1.88-18.45c-3.88-5.07-7.38-5.32-11.13.02Z"/>
  <path d="M2601.43,2784.41c-.52-4.75-.47-19.9-6.31-20.38-3.02,35.11,3.11,70.43,3.5,105.02.08,7.17-3.52,14.22-3.74,22.28-.06,2.01-.04,29.55,7.56,20.17-2.24-41.9,3.53-85.47-1.01-127.09Z"/>
  <path d="M1201.16,2474.56c.2,5-3.08,15.31,5.49,12.89l-1.82-173.31c-11.16-2.97-7.8,9.91-7.52,16.7,1.98,47.82,1.94,95.79,3.85,143.72Z"/>
  <path d="M1903.31,2418.46c.59-12.36-1.46-36.75,9.56-39.77-18.28-24.83-7.79-64.16-11.1-94.06-8.95,3.48-3.63,22.7-3.65,27.64-.07,20.28.05,40.61,0,60.85-16.44-3.06-16.6,12.75-.03,3.69l.05,47.92c12.65,1.05,4.96-1.72,5.17-6.26Z"/>
  <path d="M2828.97,2788.1c-1.8-1.93-1.47-9.66-5.27-3.8l.04,53.44c17.48,2.01,1.71-29.06,11-33.15l11.07,84.77c.1-25.28.35-53.41-4.65-78.26-2.98-14.82-2.98-13.12-12.18-23.01Z"/>
  <path d="M393.61,2620.23l-5.6-14.77c-4.31,4.55-2.5,20.12,3.54,21.18,46.17-8.83,92.46-2.5,138.49-4.6-45.13-5.37-91.94-8.3-136.43-1.8Z"/>
  <path d="M1109.51,1072.79c-30.04-3.1-59.99.78-90.1-.65l-6.32,6.58,44.51,1.62,3.47,16.85c10.53-3.34,5.36-10.77,3.65-18.44h51.63c1.17-12.02-1.64-5.43-6.83-5.97Z"/>
  <path d="M1164.76,1560.25c4.97-13.64-4.12-41.16-.5-57.4-18.11,1.15-15.7,20.87-14.31,34.63.7,7,7.98,41.54,14.82,22.77Z"/>
  <path d="M1820.64,1034.49l3.7-55.28-11.02,5.69c5.24,8.64,9.88,26.54.08,33.37-4.02,2.8-50.86-5.16-55.43,8.83l58.97-3.7,3.68,11.09Z"/>
  <path d="M600.05,1052.98c-37.5-.1-75.06-.55-112.37-.9-13.43-.12-28.4-7.14-42.53,2.7l119.8,4.63,35.1-6.44Z"/>
  <path d="M1855.71,1045.6l1.83-29.55c7.37.8,16.42-1.52,23.33.09,3.08.72.93,7.23,7.97,7.65,8.48.5,23.47-.18,33.07-.21,4.32-.01,13.96,2.53,13.07-3.78l-79.31-14.65c-11.01,4.41-3.09,40.47.05,40.46Z"/>
  <path d="M1350.49,1690.58c-21.96-.02-46.33,7.45-68.24,9.55-.03,6.17,73.96-.91,82.75-1.01,6.4-.07,14.31,2.84,22.27,3.03,4.16.1,13.97,2.33,13.01-3.83-18.7,3.85-31.68-7.72-49.78-7.74Z"/>
  <path d="M2233.7,2358.37v-94.03c0-.63-4.97-5.8-7.34-5.53l-.33,77.15-32.93,2.13,36.93,1.82,3.67,18.46Z"/>
  <path d="M684.85,1288.93c-3.55-30.87,10.68-64.13-5.48-92.15-16.29,18.61.87,44.14,2.12,60.86.72,9.62-8.24,26.51,3.35,31.29Z"/>
  <path d="M1123.72,2922.54c9.81,3.41,5.82-6.28,9.85-7.32,6.22-1.6,15.26,1.62,21.81-3.38l3.3,7.07c16.18-13.96,11.46-1.04,15.39-.01,3.61.94,27.01,2.45,27.06-3.65-15.22.07-6.8-24.37-7.37-38.82-.18-4.47,2.81-13.69-3.63-12.83l-3.76,47.92c-9.76-8.21-44.23-4.01-56.24.02-3.36,1.12-4.57,7.65-6.41,11.01Z"/>
  <path d="M1680.51,1561.86l-3.65-.02v81.13l-36.86.04c7.81,12.71,27.52-1.05,40.51,7.36-1.57-5.01,3.33-9.95,3.73-12.93,2.35-17.69,0-43.74,0-62.69,0-2.21-5.14-8.31-3.73-12.88Z"/>
  <path d="M564.63,1148.38l39.1-6.9c-32.57-.37-65.24.29-97.85.14-15.63-.07-32.6-5.88-49.68,1.67,36.53,6.66,72.2.14,108.42,5.1Z"/>
  <path d="M2657.74,2804.55l7.58-16.46-7.51-31.46,25.8-.03-1.85-11.02c-12.39,13.73-34.73,5.17-51.71,7.35-5.08.65-11.54,2.73-5.45,7.36l27.77-.15,5.36,44.41Z"/>
  <path d="M308.66,2652.06l7.51-4.21c-18.01-2.31,3.38-35.95-14.8-35.03v75.6l7.34,27.64-.05-63.99Z"/>
  <path d="M1481.44,1381.17c-1.26.99-5.07,28.66-.21,31.51l18.59-2.06.35,10.63c16.17,2.49,15.56,1.31,14.44-14.28l-22.14-.05c8.8-7.34-3.63-31.57-11.04-25.75Z"/>
  <path d="M2270.57,2328.87v77.44l-3.65-.02-.07-33.15-3.65-.02v84.82c11-4.81,1.71-19.36,3.84-31.15,1.09-6.03,6.26-10.17,7.41-18.44,2.32-16.65.56-48.53-.19-66.61-.19-4.53,2.81-13.69-3.69-12.87Z"/>
  <path d="M976.21,2398.93l7.68-35.03c-.13-13.97-13.03-38.94,3.43-44.25l-7.51-4.21.05-23.43-7.1,24.06-22.39,3.54,25.83,1.88v77.44Z"/>
  <path d="M2356.73,1026.57l6.03-6.78c-6.36,2.19-12.59-3.24-16.59-3.72-24.57-2.97-54.11,2.18-79.28,0v7.38h82.97c.99,0,3.43,3.5,6.88,3.13Z"/>
  <path d="M2241.28,2535.12c-3.2-2.18.71-21.21-7.59-21.87v71.91c0,.64,4.98,5.81,7.38,5.53v-51.63c5.02,1.52,25.22,7.39,25.74-1.84.5-8.88-20.79,1.12-25.53-2.1Z"/>
  <path d="M2071.44,1019.72l29.48.03c5.07,6.73-11.88,29.46,3.69,25.79l-.24-20.1,11.32-2.05c8.98-7.16-42.56-9.39-44.28-11.04,1.5-7.44,7.09-14.97-3.63-18.42l-3.69,47.94c10.75-1.47,5.98-20.77,7.34-22.15Z"/>
  <path d="M2196.84,2929.92c-.56-6.72,6.24.13,7.51-8.97,1.03-7.33,1.32-11.1-7.49-9.44l-3.77,18.43-7.3-22.1-11.08,11.08,7.33,7.3-14.37,3.32-3.99-6.93c2.77,13.48-13.17,2.37-14.78,10.99,12.75-4.42,65.81,5.9,73.75,1.96,1.72-.85,4.71-4.8,3.67-5.57l-29.48-.07Z"/>
  <path d="M745.73,2823.01c-25.51-4.01-60.05,2.95-86.66,0-.28,2.39,4.89,7.38,5.53,7.38h90.35c1.47-3.21-6.1-6.88-9.22-7.38Z"/>
  <path d="M692.29,2380.45c35.47.77,72.94-1.07,108.75-3.72,4.56-.34,13.69,3.05,12.89-3.57h-93.97s-27.67,7.29-27.67,7.29Z"/>
  <path d="M2241.03,1692.75l105.21,5.46,1.75-7.28c-35.57.38-72.21-10.5-106.96,1.82Z"/>
  <path d="M2175.86,2756.13c-6.29,1.74-10.28-2.68-8.51,7.86,25.07-5.23,58.94-7.43,81.07,3.7l.05-11.15c5.91,3.19,12.43,4.85,14.74-3.57-29.68,7.49-59.19-4.63-87.34,3.15Z"/>
  <path d="M2261.39,1056.63c4.49-.19,13.72,2.78,12.85-3.65-42.37-4.61-86.26-5.46-129.09-1.88,38.47.05,77.9,7.12,116.23,5.53Z"/>
  <path d="M2059.3,2899.05c-.09-2.44-2.95-19.51-3.7-25.16-.66-4.93-.95-20.62-6.25-21.35l-7.38,47.95,7.34-1.85,6.84,46.36c-1.68-15.02,3.63-32.85,3.15-45.95Z"/>
  <path d="M2056.15,2944.99c.13,1.14.28,2.27.5,3.38l-.5-3.38Z"/>
  <path d="M2580.34,1252.07h95.88c-7.52-12.82-26.44-3.23-35.04-3.67-17-.88-47.62-12.42-60.84,3.67Z"/>
  <path d="M1874.44,1447.11c-2.8-17.31-.1-35.74,1.89-53.07l-7.71-60.84v118c6.26.63,7.05,3.52,5.82-4.09Z"/>
  <path d="M2424.59,1055.64c11.14.14,22.17-5.42,33.56-2.2l9.74,40.09c10,1.31,3.47-5.27,2.96-10.37-1.02-10.24-2.23-20.25-4.83-30.19l22.11-3.71h-77.44c-1.08,5.05,11.14,6.35,13.89,6.39Z"/>
  <path d="M819.49,2402.55c7.41.5,5.79-.51,5.51-7.28-30.76,1.44-61.98,1.2-92.63,2.22-3.71.12-15.29-.44-14.27,5.1,33.89,3.48,67.57-2.31,101.4-.04Z"/>
  <path d="M332.7,1348.29c6.03.11,22.45-.02,23.98-7.71h-86.66c-.63,0-5.8,4.97-5.53,7.34,14.19,3.51,30-3.59,42.41-3.65,7.7-.04,16.33,3.85,25.8,4.02Z"/>
  <path d="M2471.59,2930.19c19.86,2,51.18-5.57,72.29-2.53l18.01-5.09h-103.25c1.39,6.72,7.36,7.05,12.95,7.62Z"/>
  <path d="M2397.78,1794.14c10.18-9.48-2.16-22.22,2.3-34.58,2.35-6.5,11.26-3.39,10.6-9.61-13.56-.69-39.29-5.27-47.92,7.3l29.51.02,5.5,36.88Z"/>
  <path d="M417.53,2668.13c-24.35-3.34-62.29,0-88.5,0-3.45,0-9.99-8.85-16.58,1.86,24.67,7.27,55.89.89,83.11,1.68,8.74.26,27.71,8.84,31.16.19-3.6.75-6.96-3.43-9.19-3.73Z"/>
  <path d="M1822.52,1277.89c-20.23-2.28-43.88,1.67-64.53,0v7.38h81.13l-.02-3.65c-6.23,2.07-12.68-3.29-16.58-3.73Z"/>
  <path d="M736.51,1134.07h57.16c4.28,0,22.8,12.28,20.3-3.66-19.97-3-40.08-5.47-60.42-3.27-3.84.42-17.34,1.45-17.04,6.93Z"/>
  <path d="M802.33,2735.68c-4.67.71-9.25-.79-10.5,6.17,33.81-4.74,67.41-2.23,101.46-3.64,4.48-.18,13.7,2.76,12.83-3.67-35.32,1.31-68.94-4.15-103.8,1.13Z"/>
  <path d="M2373.85,1808.87c20.34-3.55,42.07,3.59,60.82,4.03,4.73.11,22.45-1.39,23.96-7.64l-57.12-4.04-27.66,7.65Z"/>
  <path d="M2784.42,2948.79c-1.06,11.97-16.89,14.06-1.19,20.41.36,5.38.67,10.71,1,16.06h5.96l-5.77-36.47Z"/>
  <path d="M2783.19,2941.03l1.23,7.76c.2-2.22-.12-4.77-1.23-7.76Z"/>
  <polygon points="2705.75 2590.67 2711.1 2542.51 2738.88 2539.02 2709.38 2535.39 2705.75 2509.58 2705.79 2536.94 2690.98 2539.1 2705.28 2548.72 2705.75 2590.67"/>
  <path d="M1164.57,1770.7c-8.02-1.24-46.51-.66-48.25-2.33l-1.82-22.18-5.53,29.54h66.38c.93-5.73-6.7-4.39-10.77-5.02Z"/>
  <path d="M2373.85,1023.42l25.78.05c1.52,1.31-10.59,22.85,3.66,25.79l1.64-22.37,20.5-10.81c-15.77,7.16-29.72-2.25-46.11-.05-5,.67-11.62,2.72-5.47,7.39Z"/>
  <polygon points="2111.66 1053.29 2089.9 1052.98 2104.66 1056.61 2104.63 1100.85 2130.42 1097.15 2111.98 1093.52 2111.66 1053.29"/>
  <path d="M1042.63,2642.3c3.77,1.06,7.16-15,7.34-16.58,3.01-27.14-2.21-58.96,0-86.66l-5.31,38.72,1.64,35.05-18.49,1.83,18.47,1.88-3.65,25.76Z"/>
  <polygon points="754.39 2326.44 788.12 2317.85 751.28 2321.51 743.92 2280.95 744.14 2319.47 732.84 2325.14 754.39 2326.44"/>
  <polygon points="2547.18 1100.88 2558.2 1097.13 2550.64 1049.47 2517.65 1045.6 2545.55 1056.38 2547.18 1100.88"/>
  <path d="M736.47,2977.91c-3.81,1.68-5.67,4.3-6.45,7.35h6.07c-.04-2.46.03-4.92.38-7.35Z"/>
  <path d="M1982.95,1111.94c13.94,2.77,2.42-7.67,5.19-11.24l13.22-7.16-14.76-.04c-.33-15.55,7.61-29.71-1.8-44.23-5.06,5.62-5.63,27.95-5.16,34.6.63,8.84,5.48,18.2,3.31,28.08Z"/>
  <path d="M1979.25,2856.24c-10.58-11.28-16.61,43.29-14.71,47.9,13.56-3.79,18.08-13.35,14.69-27.08-.77-3.14-12.89-1.07.02-20.82Z"/>
  <path d="M383.72,1810.29c-5.99-.24-11.79,2.84-17.79,2.58-14.8-.63-30.23-6.97-46.12-3.92-.12,2.32,4.28,7.02,5.53,7.34,20.18,5.14,60.3-3.8,82.97,0-1.36-5.07-19.92-5.81-24.59-6Z"/>
  <path d="M478.36,2210.85l-12.98-7.48-75.51,7.5h64.53c6.47,0,15.61-3.73,23.95-.02Z"/>
  <path d="M2082.49,1694.63c-9.22-.9-81.05-2.26-81.15,1.81,6.12,5.44,16.17,5.88,24,5.87,9.01-.02,25.24-1.38,35.11-2.1,4.67-.34,21.45-.32,22.04-5.57Z"/>
  <path d="M2679.88,2542.71l.02-3.65h-70.07v7.38h53.47c2.74,0,10.8-5.99,16.58-3.72Z"/>
  <path d="M998.54,1262.03l3.47-6.24-77.4,5.49c20.23,12.68,50.57-2.86,73.94.75Z"/>
  <path d="M968.83,1384.83h-57.16c-2.37,0-20.29,1.86-20.28,7.34,23.49-.15,47.06-.63,70.4-1.16,6.4-.14,7.98,5.14,7.04-6.18Z"/>
  <path d="M2296.39,1440.18c-.12,2.32,4.28,7.02,5.53,7.34,16.78,4.27,49.37-3.14,68.22,0,.96-5.32-6.99-4.86-10.94-5.59-21.95-4.03-40.73,2.96-62.81-1.75Z"/>
  <path d="M531.71,2538.85c6.27-1.28,11.16,4.31,9.32-7.16l-103.22,11.06h75.6c.94,0,14.49-3.12,18.3-3.9Z"/>
  <path d="M884,2210.9l-37.39-1.72-43.69,9.02c17.57,6.75,33.27-1.86,50.17-3.28,8.28-.69,25.33,9.08,30.92-4.02Z"/>
  <path d="M248.79,1761.9c-3.22.47-11.11,1.63-10.1,6.41l88.47-7.3c-25.07-3.44-53.1-2.84-78.37.89Z"/>
  <path d="M1132.93,1853.16c-21.03-5.36-63.04,3.96-86.66,0l28.27,6c21.15-4.62,42.58,1.04,63.92,1.33.12-2.32-4.28-7.02-5.53-7.34Z"/>
  <path d="M310.61,2852.53c-12.95,10.24-5.04,35.83-5.38,53.64-.13,7.08-2.71,13.29-3.85,20.07,13.61,2.84,5.18-15.58,7.32-23.41.92-3.35,7.09-2.2,7.31-2.52.86-1.29-5.54-6.69-6.36-11.98-1.63-10.55,6.64-25.23.95-35.8Z"/>
  <path d="M1192.32,1712.69c-7.15-.5-13.81-3.54-22.44-3.64-7.33-.08-25.01-.96-27.73,7.67h73.75c-4.44-12.96-15.33-3.45-23.59-4.03Z"/>
  <path d="M2414.39,1121.16c.07,18.44,0,36.88,0,55.31,0,.47-6.77,7.63,1.9,9.2,15.01,2.71,3.12-13.07,2.73-16.96-.52-5.18,3.43-11.54,2.89-17.87-.97-11.38-6.31-22.8-3.84-35.2-13.22-2.2-3.68,1.73-3.67,5.52Z"/>
  <path d="M454.43,1248.55c-7.48-.28-5.76-.11-5.56,7.21h57.16c.63,0,5.8-4.97,5.53-7.34-19.15-.3-38.03.85-57.13.13Z"/>
  <path d="M2233.7,1318.45l7.68-27.66c-7.07-16.64,2.5-43.42-11.33-53.46-.63,7.77,3.35,16.69,3.65,23.97.79,18.99-.57,38.19,0,57.16Z"/>
  <path d="M1997.51,1279.17l.17-45.5c-9.61-1.55-7.64,1.66-7.52,9.28.19,12.42,6.39,25.35,3.85,38.64l-22.13,3.63,44.22,3.69-18.6-9.74Z"/>
  <rect x="2134.13" y="2867.26" width="7.38" height="59"/>
  <path d="M2568.41,1030.05c2.09-14.41.05-29.33-2.87-43.49-5.26-5.54-6.66.44-7.34,5.47-1.98,14.55,2.85,28.3,3.71,42.49,5.58,6.73,5.6,1.71,6.49-4.47Z"/>
  <path d="M1112.62,2918.89c-.31-18.64-27.16-8.21-35.25-7.78-1.71.09-1.35-5.26-2.46-5.72-5.98-2.46-11.46-1.21-17.57-1.21,5.21,22.97,37.72,3.29,55.28,14.71Z"/>
  <path d="M2340.64,2775.07v70.07c7.44-1.48,5.85-6.54,6.56-11.64,1.79-12.86.86-36.12-1.3-49.09-.6-3.62.35-10.26-5.26-9.34Z"/>
  <path d="M2134.13,1934.29l22.12-.04c-3.58-10.3-10.98-7.08-18.4-3.65l3.62-62.69c-.87-1.12-6.98,4.11-7.34,5.53-3.83,15.07,2.8,43.91,0,60.85Z"/>
  <path d="M542.96,1108.24c4.49-.19,13.7,2.81,12.84-3.64l-70.05-3.69c1.5,7.39,6.54,5.83,11.64,6.52,12.86,1.75,32.24,1.38,45.56.8Z"/>
  <path d="M2036.81,2975.7l-9.59-5.18c7.38,13.96-1.58,10.69-5.72,14.73h27.01l-11.69-9.55Z"/>
  <path d="M2502.99,1486.03c.46-9.12-4.02-18.76-1.22-28.19l-6.25-28.77v77.44c5.85-.52,7.26-16.29,7.47-20.49Z"/>
  <path d="M1031.56,2845.14l6.32-10.69-.84-66.73c-3.65,25.66-7.05,51.34-5.48,77.42Z"/>
  <rect x="618.51" y="2432.12" width="3.69" height="110.63"/>
  <path d="M891.41,1436.49l25.81,3.65.02,44.25c9.01-4.41,8.94-39.86,5.72-44.49l-31.55-3.41Z"/>
  <path d="M308.74,1484.4l31.33,7.69,46.09-4.03c2.21-13.22-1.72-3.68-5.51-3.67-23.96.09-47.98-.07-71.91,0Z"/>
  <path d="M1569.9,1392.18c-12.67-1.56-25.22,6.95-18.6,20.42l20.69-1.87-2.09-18.54Z"/>
  <path d="M359.39,2934.45l-24.81,10.21c22.25-4.81,45.38-2.08,67.66-5.8,3.79-.63,8.67,5.95,6.06-5.2l-48.91.79Z"/>
  <path d="M655.38,1760.97c11.69-8.62,11.88-49.85,0-59v59Z"/>
  <path d="M1994.04,2520.64v25.82s-14.77,3.63-14.77,3.63l14.81,2.15c1.3,8.63-4.47,23.09,7.26,27.39v-31.3s-7.3-27.68-7.3-27.68Z"/>
  <path d="M672.31,2952.42c-3.56.38-13.87,1.61-13.22,7l66.38-3.67-1.79-7.29c-15.55,7.38-34.28,2.12-51.37,3.96Z"/>
  <path d="M2100.96,2509.6c-.92,6.25,8.75,3.83,13.01,3.8,21.63-.14,41.68-6.23,64.41-.19-18.39-16.71-54.42-3.52-77.42-3.61Z"/>
  <path d="M2019.81,1705.65c-11.23-2.64-4.56,2.08-5.21,6.06-3.69,22.44,1.66,41.58,1.56,64.01,10.27-2.75,3.65-7.09,3.65-9.22v-60.85Z"/>
  <path d="M2523.18,1148.82h59c.83,0,4.04,5.44,5.49,3.69l.04-7.37h-92.19l.02,3.65c9.86,4.33,21.11.04,27.64.04Z"/>
  <path d="M1064.73,1722.27l58.98,5.48c-9.93-15.92-45.02-14.76-58.98-5.48Z"/>
  <path d="M2787.18,2492.98c.59,10.02-7.99,28.3,3.35,35.02v-60.85c0-4.55-5.12-14.14-3.73-20.26-6.28-.69-4.01,12.71-3.82,16.73.51,10.59,3.61,19.52,4.19,29.36Z"/>
  <path d="M714.37,1097.21c-18.22,3.4-46.41-.64-58.98,14.7,16.4-4.55,33.5-3.11,50.02-7.26,6.18-1.55,10.77,3.71,8.96-7.44Z"/>
  <path d="M1300.71,1060.34l-11.06,1.89-3.55-3.7c4.99-8.2,7.25-23.29-3.78-27.72v33.21s-14.77,1.8-14.77,1.8c9.66,6.35,29.51,7.41,33.16-5.48Z"/>
  <path d="M1933.15,1808.91c-19.36-1.91-41.18,1.39-60.85,0l28.05,7.03c14.6-5.36,25.7.03,40.05.53,4.09.14,14,2.28,13.02-3.84-7.53,2.91-15.62-3.27-20.26-3.72Z"/>
  <polygon points="2207.9 1934.25 2254.01 1938.23 2281.62 1930.64 2220.73 1930.61 2207.9 1934.25"/>
  <path d="M791.81,2775.09l-66.33,3.62c19.8,7.08,40.72,2.16,61.17,3.23,7.65.4,8.49-4.34,5.16-6.85Z"/>
  <path d="M1153.22,2826.73c-3.91-3.71-51.33,1.47-55.32,10.99,16.65-1.46,34.43-2.25,50.86-4.5,6.05-.83,10.77-.51,4.46-6.49Z"/>
  <path d="M2248.45,1755.44c-.14,21.51.1,43.07,0,64.53,5.61-1.14,7.07-19.33,7-23.58-.27-17.09-6.58-38.7-3.35-57.53-10.49,1.45-3.63,14.07-3.65,16.58Z"/>
  <path d="M596.34,2609.15c-6.52-1.63-2.54,6.55-3.64,7.35h-55.31c-1.1,5.25,7.13,5.11,10.59,5.21,8.74.26,32.29-3.18,38.86-.71,6.04,2.27,4.01,9.02,7.74,10.28,10.67,3.59.65-19.71,1.76-22.12Z"/>
  <path d="M738.29,1701.99c4.94-.5-2.96-7.27-3.62-7.4-17.83-3.55-45.41,2.6-64.53,0-.21,6.57-1.94,7.87,5.48,7.35,21.12-1.49,41.5-5.97,62.67.05Z"/>
  <path d="M493.99,1693.35c-9.11-3.88-16.83-4.39-32.35-2.59-5.52.64-11.35.76-12.76,7.49h70.05c-2.99-8.05-16.52-1.3-24.94-4.9Z"/>
  <path d="M2071.44,1606.05c11.65-.1,23.39.48,35.07-.18,6.25-.35,21.34.32,23.93-7.12-17.48,4.88-47.27-7.36-59,7.3Z"/>
  <path d="M1019.69,1492.69c4.53-.83,12.7,1.54,11.81-4.57l-27.64-1.65-35,5.26c15,4.72,35.3,3.82,50.83.96Z"/>
  <path d="M1206.65,1384.83c-4.26.32-16.52,1.13-16.54,7.34,16.55-1.69,33.19.23,49.58.17,4.32-.02,13.96,2.53,13.07-3.78-15.75-1.98-29.86-4.94-46.11-3.73Z"/>
  <path d="M2580.38,1462.29l-3.7,44.25-14.76,3.63,22.13.06c-.33-11.63.43-23.43-.02-35.09-.17-4.47,2.78-13.72-3.65-12.84Z"/>
  <path d="M2251.31,1444.82c8.57-.2,26.1,7.92,30.31-.95l-42.5-3.92-31.22,7.53c14.36,2.75,30.31-2.36,43.41-2.66Z"/>
  <path d="M2671.02,2812.41c-2.65-.24-7.72,3.82-9.13,2.47-.48-.46-.82-13.39-6.01-2.99-2.36,4.73-1.91,9.78-1.75,14.81l18.36-11.06c1.2,9.17-7.63,13.01-14.35,15.19l6.97,14.29c-2.52-10.64,26.91-30.77,5.9-32.71Z"/>
  <path d="M2849.58,2782.48c-5.04,17.84-6.07,55.25,10.98,66.35l-7.17-20.44-3.81-45.91Z"/>
  <polygon points="241.42 2536.19 198.13 2542.71 221.47 2545.04 271.85 2539.1 241.42 2536.19"/>
  <path d="M1057.37,2325.16l7.32-70.03c-7.01-.09-7.65-2.18-6.88,5.22,2.24,21.48-2.3,43.21-.44,64.81Z"/>
  <path d="M2554.52,2985.3c8.42,11.72,14.03,8.09,17.98-.05h-12.24c-1.63.32-3.52.36-5.74.05Z"/>
  <path d="M2580.41,2958.35c1.31-4.81,8.79-.14,7.29-6.23-21.8-3.47-10.61,29.9-27.43,33.14h12.24c3.9-8.05,6.17-20.52,7.91-26.91Z"/>
  <polygon points="1437.34 1393.93 1422.4 1395.91 1426.56 1413.86 1444.52 1414.31 1437.34 1393.93"/>
  <path d="M515.25,1838.41v-59c-9.01,2.61-7.49,12.95-7.63,20.26l7.63,38.74Z"/>
  <path d="M2126.73,1746.26l-55.27-11.09c-.82,9.6-.53,6.13,5.53,7.24,12.26,2.25,25.62,4.86,37.87,6.5,3.99.54,12.71,4.08,11.86-2.66Z"/>
  <path d="M2167.31,1178.33l.02,29.47c14.69,3.53,4.01-21.63,7.38-25.8,6.98.65,14.14,2.28,21.14,2.59,4.23.19,12.79,4.44,12.01-2.54l-40.55-3.72Z"/>
  <path d="M514.91,2935.89c-6.82,1.45-8.27.69-7,8.81l66.32-7.34c-19.07-1.69-40.37-5.51-59.33-1.48Z"/>
  <path d="M2598.73,1148.8c6.3-18.11-1.52-33.62-3.74-51.58l-10.93,3.62,6.69,1.73,7.99,46.23Z"/>
  <path d="M2333.25,1748.12c.64-15.52-2.35-30.85,0-46.12-5.3-5.39-6.68.27-7.36,5.43-2.38,18.11,3.1,35.71,3.72,53.53,6.45.86,3.45-8.35,3.63-12.83Z"/>
  <path d="M2075.1,2911.54l-7.31-3.74,3.7,33.19c4.84.98,5.87-6.79,6.41-10.1,2.45-15.12.5-31.03,8.31-45.16-12.73-3.58-7.7,22.5-11.09,25.8Z"/>
  <path d="M2071.44,2749.26l35.07,6.99c7.1-4.31,27.19,6.68,23.93-6.99h-59Z"/>
  <polygon points="397.25 2741.88 330.87 2741.88 387.93 2749.42 397.25 2741.88"/>
  <path d="M978.1,2612.86c-5.02.41-22.29,1.77-24,7.29,18.12,2.65,36.74-3.92,54.28-.97,7.23,1.22,4.49.61,4.69-6.35-11.56.52-23.4-.91-34.96.03Z"/>
  <path d="M858.2,2380.49h84.82c.76-6.68-8.3-3.27-12.91-3.61-19.3-1.44-39.72-1.76-59.01-1.72-3.5,0-13.89-.24-12.9,5.34Z"/>
  <path d="M1831.74,2649.69v51.63c7.35-2.84,7.34-20.79,7.55-27.48.12-3.83,1.2-35.74-7.55-24.15Z"/>
  <polygon points="1931.71 2870.42 1927.66 2863.59 1927.66 2882 1938.57 2874.53 1936.81 2867.8 1931.71 2870.42"/>
  <path d="M1802.29,2044.93c-2.93,8.17-2.86,13.92-.02,22.11,11.56,1.65,20.04-6.58,18.37-18.37l-18.36-3.74Z"/>
  <path d="M1206.82,2067.18l1.7-22.27c-38.82-2.68-11.78,38.41-1.7,22.27Z"/>
  <path d="M1385.54,1027.13h118l-5.5-7.33c-31.51.36-71.33-3.8-102,1.14-4.63.75-9.28-.88-10.51,6.19Z"/>
  <path d="M1402.29,971.98c6.48-.68,11.91,1.21,16.36-5.7l-41.81-1.21-35.54,6.7c20.34,2.89,40.39,2.35,60.99.2Z"/>
  <path d="M2344.07,2046.5c-13.83,9.76,5.08,27.25,14.08,15.95,9.51-11.94-2.26-24.29-14.08-15.95Z"/>
  <path d="M254.65,2066.5c17.24-4.63,6.24-25.21-6.64-21.56-9.09,2.57-8.68,25.68,6.64,21.56Z"/>
  <path d="M2841.91,2985.26h-2.37l2.59,14.74c-.61-4.49-.5-9.52-.21-14.74Z"/>
  <path d="M2831.13,2937.33l8.41,47.93h2.37c.97-17.72,4.09-37.83-10.78-47.93Z"/>
  <path d="M1776.58,2887.56c-4.22,18.82-.25,32.2-3.83,49.75,5.87.78,9.37-.72,9.42-7.49.11-16.44-6.01-34.18,1.62-51.47-11.43-1.83-5.82,3.01-7.21,9.21Z"/>
</svg>